<svg xmlns="http://www.w3.org/2000/svg" xmlns:xlink="http://www.w3.org/1999/xlink" width="507.238647" height="179.173096" viewBox="0 0 507.239 179.173">
	<path d="M0 -0.21524L294.664 -0.21524L294.664 124L0 124L0 -0.21524Z" stroke-opacity="0" fill-opacity="0.000000" fill="#000000" transform="matrix(1 0 0 1 198.835 47.8909)"/>
	<path d="M28.9984 97.5252L6.96153 33.3352L8.49128 32.81L8.08968 34.3767L-1.11195 32.0181L-1.11195 23.4622L31.1094 22.9003L31.1094 32.0799L20.4188 34.2927L20.091 32.7089L21.6301 32.2118L37.8798 82.5277L36.3406 83.0248L34.8113 82.4983L52.0971 32.2835L53.6265 32.81L53.2901 34.392L42.3806 32.0727L42.3806 23.4632L73.5658 22.8993L73.5658 32.022L64.2584 34.3779L63.8615 32.81L65.3843 33.355L42.0286 98.6174L29.3734 98.6174L28.9984 97.5252ZM32.0579 96.4748L30.5282 97L30.5282 95.3826L40.8895 95.3826L40.8895 97L39.3667 96.455L62.6291 31.4536L71.5515 29.1951L71.9484 30.763L70.331 30.763L70.331 24.5462L71.9484 24.5462L71.9776 26.1633L44.0272 26.6687L43.998 25.0516L45.6153 25.0516L45.6153 30.763L43.998 30.763L44.3343 29.181L55.7507 31.6081L36.2917 88.136L17.9978 31.4905L29.1642 29.1792L29.492 30.763L27.8746 30.763L27.8746 24.5462L29.492 24.5462L29.5202 26.1633L0.533631 26.6687L0.505433 25.0516L2.12282 25.0516L2.12282 30.763L0.505433 30.763L0.907033 29.1963L9.7378 31.4598L32.0579 96.4748ZM30.5282 97L8.49128 32.81L0.505433 30.763L0.505433 25.0516L29.492 24.5462L29.492 30.763L20.091 32.7089L36.3406 83.0248L53.6265 32.81L43.998 30.763L43.998 25.0516L71.9484 24.5462L71.9484 30.763L63.8615 32.81L40.8895 97L30.5282 97ZM90.039 16.2065Q98.4039 16.2065 98.4039 25.5823Q98.4039 29.5882 95.4729 31.8428Q92.761 33.9219 89.6346 33.9219Q86.1203 33.9219 83.8708 31.4797Q81.6993 29.088 81.6993 25.0516Q81.6993 20.9637 84.1013 18.5933Q86.4881 16.2065 90.039 16.2065ZM90.039 19.4413Q87.828 19.4413 86.3734 20.8958Q84.9341 22.3161 84.9341 25.0516Q84.9341 27.8386 86.2501 29.2882Q87.5387 30.6872 89.6346 30.6872Q91.6637 30.6872 93.5007 29.2788Q95.1691 27.9954 95.1691 25.5823Q95.1691 19.4413 90.039 19.4413ZM97.3678 42.1352L97.3678 88.7109L95.7504 88.7109L96.2648 87.1775L105.126 90.1505L105.126 98.6174L74.9771 98.6174L74.9771 90.1058L84.93 87.16L85.389 88.7109L83.7716 88.7109L83.7716 50.4243L85.389 50.4243L85.0181 51.9986L74.9771 49.6326L74.9771 41.0927L97.3678 40.4724L97.3678 42.1352ZM94.133 42.1352L95.7504 42.1352L95.7952 43.752L76.6393 44.2827L76.5945 42.6659L78.2119 42.6659L78.2119 48.3521L76.5945 48.3521L76.9654 46.7778L87.0064 49.1438L87.0064 89.9189L77.0535 92.8648L76.5945 91.3139L78.2119 91.3139L78.2119 97L76.5945 97L76.5945 95.3826L103.509 95.3826L103.509 97L101.891 97L101.891 91.3139L103.509 91.3139L102.994 92.8473L94.133 89.8742L94.133 42.1352ZM90.039 17.8239Q96.7865 17.8239 96.7865 25.5823Q96.7865 28.7918 94.4868 30.5608Q92.2124 32.3046 89.6346 32.3046Q86.8295 32.3046 85.0605 30.3839Q83.3167 28.4633 83.3167 25.0516Q83.3167 21.6399 85.2374 19.7445Q87.158 17.8239 90.039 17.8239ZM95.7504 42.1352L95.7504 88.7109L103.509 91.3139L103.509 97L76.5945 97L76.5945 91.3139L85.389 88.7109L85.389 50.4243L76.5945 48.3521L76.5945 42.6659L95.7504 42.1352ZM109.65 70.3889Q109.65 63.4938 111.635 57.8016Q113.669 52.0494 117.406 47.9895Q121.177 43.8949 126.294 41.6864Q131.43 39.4817 137.549 39.4817Q149.884 39.4817 156.787 47.3896Q163.605 55.2006 163.605 68.8474Q163.605 75.5418 161.643 81.134Q159.672 86.7559 156.11 90.88Q152.512 95.0184 147.362 97.3376Q142.245 99.6535 136.008 99.6535Q123.497 99.6535 116.547 92.1062Q109.65 84.5894 109.65 70.3889ZM112.884 70.3889Q112.884 83.3302 118.926 89.915Q124.915 96.4188 136.008 96.4188Q141.547 96.4188 146.034 94.388Q150.537 92.3604 153.662 88.7657Q156.822 85.1061 158.591 80.0634Q160.37 74.991 160.37 68.8474Q160.37 56.4138 154.35 49.5167Q148.414 42.7165 137.549 42.7165Q132.095 42.7165 127.576 44.6564Q123.09 46.5924 119.786 50.1803Q116.497 53.7525 114.689 58.8671Q112.884 64.0418 112.884 70.3889ZM137.145 51.0056Q123.751 51.0056 123.751 69.5803Q123.751 88.1296 136.614 88.1296Q143.309 88.1296 146.29 83.6899Q149.503 78.9173 149.503 69.0495Q149.503 51.0056 137.145 51.0056ZM137.145 47.7708Q152.738 47.7708 152.738 69.0495Q152.738 79.9046 148.976 85.4933Q145.033 91.3644 136.614 91.3644Q120.516 91.3644 120.516 69.5803Q120.516 47.7708 137.145 47.7708ZM111.267 70.3889Q111.267 63.7678 113.162 58.3344Q115.083 52.901 118.596 49.0849Q122.134 45.2436 126.935 43.1714Q131.762 41.0991 137.549 41.0991Q149.149 41.0991 155.568 48.4531Q161.987 55.8072 161.987 68.8474Q161.987 75.2664 160.117 80.5987Q158.247 85.931 154.886 89.8229Q151.525 93.6894 146.698 95.8628Q141.896 98.0361 136.008 98.0361Q124.206 98.0361 117.736 91.0106Q111.267 83.9598 111.267 70.3889ZM137.145 49.3882Q122.134 49.3882 122.134 69.5803Q122.134 89.747 136.614 89.747Q144.171 89.747 147.633 84.5916Q151.12 79.4109 151.12 69.0495Q151.12 49.3882 137.145 49.3882ZM189.671 17.2932L189.671 88.7109L188.053 88.7109L188.447 87.1423L200.032 90.0526L200.032 98.6174L167.078 98.6174L167.078 90.1049L177.057 87.1597L177.515 88.7109L175.897 88.7109L175.897 25.5823L177.515 25.5823L177.145 27.1568L167.078 24.7914L167.078 16.2502L189.671 15.6309L189.671 17.2932ZM186.436 17.2932L188.053 17.2932L188.097 18.91L168.739 19.4407L168.695 17.8239L170.312 17.8239L170.312 23.51L168.695 23.51L169.065 21.9355L179.132 24.3009L179.132 89.9199L169.153 92.8651L168.695 91.3139L170.312 91.3139L170.312 97L168.695 97L168.695 95.3826L198.415 95.3826L198.415 97L196.797 97L196.797 91.3139L198.415 91.3139L198.02 92.8825L186.436 89.9722L186.436 17.2932ZM188.053 17.2932L188.053 88.7109L198.415 91.3139L198.415 97L168.695 97L168.695 91.3139L177.515 88.7109L177.515 25.5823L168.695 23.51L168.695 17.8239L188.053 17.2932ZM249.656 72.537L213.947 72.7392L213.938 71.1218L215.556 71.1218Q215.556 79.0424 219.291 83.6777Q222.897 88.1296 228.95 88.1296Q231.081 88.1296 233.215 87.7503Q235.389 87.3639 237.312 86.7628Q239.234 86.1623 240.781 85.4481Q242.342 84.7152 243.388 84.0408L246.793 81.8398L252.123 89.7785L250.96 90.7076Q247.337 93.6005 244.257 95.2853Q241.189 96.9515 237.053 98.2865Q232.818 99.6535 227.913 99.6535Q214.961 99.6535 208.159 91.6814Q201.454 83.8232 201.454 70.3889Q201.454 63.7005 203.386 58.0627Q205.361 52.3786 208.927 48.2766Q212.539 44.1257 217.499 41.8072Q222.474 39.4817 228.419 39.4817Q251.795 39.4817 251.795 65.4357L251.795 65.5138L251.116 72.5287L249.656 72.537ZM249.638 69.3023L249.647 70.9196L248.037 70.7639L248.568 65.2799L250.178 65.4357L248.56 65.4357Q248.56 42.7165 228.419 42.7165Q223.193 42.7165 218.869 44.7377Q214.529 46.766 211.368 50.3988Q208.212 54.0298 206.446 59.1115Q204.689 64.2394 204.689 70.3889Q204.689 82.6307 210.62 89.5817Q216.453 96.4188 227.913 96.4188Q232.309 96.4188 236.059 95.2081Q239.909 93.9654 242.705 92.4473Q245.538 90.8974 248.941 88.1799L249.95 89.4438L248.607 90.3453L244.994 84.9624L246.336 84.0609L247.214 85.4193L245.14 86.7598Q243.912 87.5512 242.137 88.3851Q240.399 89.1872 238.277 89.8503Q236.157 90.5128 233.782 90.9351Q231.367 91.3644 228.95 91.3644Q221.355 91.3644 216.773 85.7077Q212.321 80.1837 212.321 71.1218L212.321 69.5136L249.638 69.3023ZM214.342 61.746L239.185 61.746L239.185 63.3634L237.567 63.3634Q237.567 57.5496 235.149 54.0473Q232.945 50.8034 227.812 50.8034Q222.63 50.8034 219.6 54.2473Q216.439 57.8178 215.954 63.501L214.342 63.3634L214.342 61.746ZM214.342 64.9808L212.581 64.9808L212.731 63.2259Q213.307 56.4754 217.172 52.1106Q221.167 47.5686 227.812 47.5686Q234.658 47.5686 237.812 52.2096Q240.802 56.5415 240.802 63.3634L240.802 64.9808L214.342 64.9808ZM249.647 70.9196L213.938 71.1218Q213.938 79.6131 218.032 84.6927Q222.126 89.747 228.95 89.747Q231.224 89.747 233.498 89.3427Q235.773 88.9383 237.795 88.3065Q239.816 87.6748 241.459 86.9166Q243.127 86.1332 244.264 85.4003L246.336 84.0609L249.95 89.4438Q246.438 92.2489 243.481 93.8663Q240.549 95.4584 236.556 96.7473Q232.563 98.0361 227.913 98.0361Q215.707 98.0361 209.389 90.6315Q203.071 83.2269 203.071 70.3889Q203.071 63.9699 204.916 58.5871Q206.786 53.2042 210.147 49.3377Q213.534 45.4458 218.184 43.2725Q222.834 41.0991 228.419 41.0991Q250.178 41.0991 250.178 65.4357L249.647 70.9196ZM214.342 63.3634L239.185 63.3634Q239.185 57.0455 236.48 53.1284Q233.802 49.186 227.812 49.186Q221.899 49.186 218.386 53.1789Q214.873 57.1466 214.342 63.3634ZM278.169 27.5535L278.169 42.6659L276.551 42.6659L276.551 41.0486L293.18 41.0486L293.18 52.0417L276.551 52.0417L276.551 50.4243L278.169 50.4243L278.169 83.6566Q278.169 88.3318 281.732 88.3318Q284.632 88.3318 289.023 85.9499L290.479 85.1596L294.666 93.344L293.557 94.1588Q286.079 99.6535 278.118 99.6535Q272.145 99.6535 268.357 95.6917Q264.598 91.7605 264.598 83.0248L264.598 50.4243L266.215 50.4243L266.215 52.0417L254.237 52.0417L254.237 42.2384L266.054 41.0566L266.215 42.6659L264.598 42.6659L264.598 28.3005L278.169 25.5797L278.169 27.5535ZM274.934 27.5535L276.551 27.5535L276.869 29.1393L266.533 31.2116L266.215 29.6258L267.833 29.6258L267.833 44.1297L256.015 45.3114L255.854 43.7021L257.471 43.7021L257.471 50.4243L255.854 50.4243L255.854 48.807L267.833 48.807L267.833 83.0248Q267.833 90.4629 270.695 93.4561Q273.528 96.4188 278.118 96.4188Q285.018 96.4188 291.641 91.5521L292.599 92.8554L291.159 93.592L288.354 88.1081L289.794 87.3715L290.565 88.7931Q285.453 91.5666 281.732 91.5666Q274.934 91.5666 274.934 83.6566L274.934 48.807L291.563 48.807L291.563 50.4243L289.945 50.4243L289.945 42.6659L291.563 42.6659L291.563 44.2833L274.934 44.2833L274.934 27.5535ZM276.551 27.5535L276.551 42.6659L291.563 42.6659L291.563 50.4243L276.551 50.4243L276.551 83.6566Q276.551 89.9492 281.732 89.9492Q285.043 89.9492 289.794 87.3715L292.599 92.8554Q285.548 98.0361 278.118 98.0361Q272.837 98.0361 269.526 94.5739Q266.215 91.1117 266.215 83.0248L266.215 50.4243L255.854 50.4243L255.854 43.7021L266.215 42.6659L266.215 29.6258L276.551 27.5535Z" fill="#674677" fill-opacity="1.000000" transform="matrix(1 0 0 1 198.835 47.8909)"/>
	<path d="M121.358 87.763C135.031 83.3756 147.704 66.4792 137.602 46.9707C126.501 25.5237 115.379 29.7274 106.584 32.5434C105.237 32.972 127.929 23.3606 96.6456 36.4411C97.0946 34.7881 99.3393 35.3187 96.6456 36.4411C97.4823 34.6249 93.4418 37.1553 93.8091 35.1146C96.1355 21.7485 85.5035 2.79102 71.4636 0.423887C52.6281 -2.73909 42.69 12.4024 40.3432 25.7685C39.5677 30.2783 42.6492 36.0125 44.2817 39.9918C43.6083 40.4407 42.9757 40.91 42.3227 41.3998C41.7104 40.91 41.0778 40.4407 40.4044 40.0122C28.6501 32.3394 12.5899 35.1963 4.50881 46.3789C-3.53149 57.5616 -0.531681 72.8255 11.2227 80.4983C16.6101 84.0286 15.0999 86.1305 21.12 85.4163C21.3648 86.0897 22.7321 89.4975 23.0178 90.1505C16.5284 92.8646 16.3039 93.4563 13.9164 100.354C9.46766 113.23 18.4263 128.127 31.9764 132.351C45.5265 136.575 60.1174 129.576 64.5661 116.699C65.2599 114.679 64.4232 118.719 64.5661 116.699C65.1375 116.72 66.668 125.556 66.0966 125.556C64.0151 125.556 69.5658 135.963 71.6677 135.963C80.8916 143.309 82.4833 149.655 94.4213 147.941C109.665 145.758 118.093 136.534 121.542 123.392C124.583 111.822 116.624 93.8237 105.706 88.9261C105.951 88.4364 107.278 89.0282 107.482 88.5384C111.747 89.3343 116.95 89.171 121.358 87.763L121.358 87.763Z" fill="#814C94" fill-opacity="1.000000" stroke-opacity="0" transform="matrix(1 0 0 1 25.0372 16.4047)"/>
	<path d="M121.358 87.763C135.031 83.3756 147.704 66.4792 137.602 46.9707C126.501 25.5237 115.379 29.7274 106.584 32.5434C105.237 32.972 127.929 23.3606 96.6456 36.4411C97.0946 34.7881 99.3393 35.3187 96.6456 36.4411C97.4823 34.6249 93.4418 37.1553 93.8091 35.1146C96.1355 21.7485 85.5035 2.79102 71.4636 0.423887C52.6281 -2.73909 42.69 12.4024 40.3432 25.7685C39.5677 30.2783 42.6492 36.0125 44.2817 39.9918C43.6083 40.4407 42.9757 40.91 42.3227 41.3998C41.7104 40.91 41.0778 40.4407 40.4044 40.0122C28.6501 32.3394 12.5899 35.1963 4.50881 46.3789C-3.53149 57.5616 -0.531681 72.8255 11.2227 80.4983C16.6101 84.0286 15.0999 86.1305 21.12 85.4163C21.3648 86.0897 22.7321 89.4975 23.0178 90.1505C16.5284 92.8646 16.3039 93.4563 13.9164 100.354C9.46766 113.23 18.4263 128.127 31.9764 132.351C45.5265 136.575 60.1174 129.576 64.5661 116.699C65.2599 114.679 64.4232 118.719 64.5661 116.699C65.1375 116.72 66.668 125.556 66.0966 125.556C64.0151 125.556 69.5658 135.963 71.6677 135.963C80.8916 143.309 82.4833 149.655 94.4213 147.941C109.665 145.758 118.093 136.534 121.542 123.392C124.583 111.822 116.624 93.8237 105.706 88.9261C105.951 88.4364 107.278 89.0282 107.482 88.5384C111.747 89.3343 116.95 89.171 121.358 87.763L121.358 87.763Z" stroke="#000000" stroke-opacity="0.000000" stroke-width="1" stroke-dasharray="0 0" fill-opacity="0" transform="matrix(1 0 0 1 25.0372 16.4047)"/>
	<path d="M108.461 158.166C105.931 158.166 103.38 157.859 100.87 157.227C88.6872 154.186 79.7286 144.228 77.7287 132.168C77.5246 133.025 77.3002 133.882 77.0145 134.719C71.6475 151.044 54.016 159.941 37.6905 154.574C29.7931 151.982 23.3649 146.452 19.6101 139.024C15.8552 131.597 15.2226 123.169 17.8347 115.251C20.4059 107.456 25.9974 100.967 33.3235 97.2527C26.2831 97.7628 19.3244 95.8854 13.5084 91.9062C-0.633516 82.1928 -4.26593 62.766 5.44772 48.604C15.1614 34.442 34.5683 30.8301 48.7306 40.5435C49.1796 40.8496 49.6081 41.1557 50.0366 41.5026C50.1387 41.421 50.2611 41.3393 50.3632 41.2577C48.6694 36.3602 48.2204 31.1158 49.0571 26.0346C51.8733 9.09733 67.9538 -2.39143 84.8915 0.424643C93.0951 1.79187 100.278 6.26085 105.115 13.0153C109.951 19.7698 111.869 28.014 110.502 36.2377C110.155 38.2988 109.584 40.3802 108.768 42.4413C108.972 42.6045 109.155 42.7678 109.318 42.931L109.339 42.8902L109.625 43.1147C111.931 41.5638 114.502 40.2986 117.318 39.3599C125.277 36.6663 133.827 37.2377 141.378 40.9924C148.908 44.7268 154.54 51.1752 157.234 59.1541C159.927 67.1329 159.336 75.6628 155.601 83.2131C151.867 90.7431 145.418 96.3752 137.439 99.0688C133.378 100.436 129.072 100.967 124.807 100.62C136.153 107.66 141.888 121.414 138.602 134.617C136.582 142.677 131.562 149.493 124.42 153.778C119.542 156.635 114.032 158.145 108.461 158.166L108.461 158.166L108.461 158.166ZM75.4023 125.25L77.6879 125.373C78.0756 125.393 78.4634 125.434 78.8511 125.434L80.4428 125.434L80.4836 127.026C80.4836 139.881 89.1769 151.044 101.646 154.166C108.89 155.982 116.42 154.86 122.828 151.003C129.236 147.146 133.766 141.045 135.562 133.8C138.786 120.883 132.399 107.415 120.379 101.742L118.93 101.069L119.93 99.0076C120.093 98.6607 120.277 98.3138 120.42 97.9669L120.91 96.7833L122.175 97.0282C126.93 97.9261 131.888 97.5996 136.46 96.0487C143.622 93.6408 149.438 88.5596 152.805 81.7847C156.173 75.0098 156.683 67.3166 154.275 60.154C151.867 52.9914 146.785 47.1755 140.01 43.8085C133.235 40.4415 125.542 39.9313 118.379 42.3392C115.461 43.3188 112.828 44.6656 110.563 46.3389L109.604 47.0531L108.196 45.9716C107.931 45.7675 107.645 45.543 107.4 45.3186L107.38 45.339C107.319 45.2982 107.033 45.0737 105.911 44.1962L104.931 43.4412L105.421 42.3188C106.359 40.1354 107.033 37.9315 107.4 35.748C108.625 28.3813 106.91 20.9738 102.564 14.8927C98.2172 8.81164 91.7686 4.7916 84.3813 3.56722C69.1578 0.996021 54.7302 11.3216 52.1793 26.5447C51.3631 31.4627 51.9141 36.5643 53.7303 41.2577L54.1792 42.4209L53.1589 43.1351C52.4242 43.6453 51.71 44.1962 50.9958 44.7676L49.9958 45.5634L49.0163 44.7472C48.3633 44.1962 47.6694 43.6657 46.9552 43.1759C40.7923 38.9518 33.3438 37.3805 26.0178 38.7477C18.6713 40.115 12.3044 44.2574 8.08019 50.4202C-0.674336 63.1129 2.59076 80.5603 15.3042 89.2942C20.8957 93.1306 27.7116 94.7835 34.507 93.9673L35.7723 93.804L36.1804 95.008C36.4661 95.8446 36.7314 96.5997 37.0375 97.3343L37.6293 98.7627L36.2008 99.3749C28.8952 102.579 23.3037 108.721 20.8141 116.231C18.4877 123.332 19.0591 130.903 22.4262 137.576C25.7933 144.248 31.548 149.207 38.6496 151.534C53.3017 156.349 69.1374 148.35 73.9738 133.698C74.6881 131.515 75.1166 129.25 75.2799 126.781L75.4023 125.25L75.4023 125.25L75.4023 125.25Z" fill="#5D416B" fill-opacity="1.000000" stroke-opacity="0" transform="matrix(1 0 0 1 9.87476 7.28223)"/>
	<path d="M108.461 158.166C105.931 158.166 103.38 157.859 100.87 157.227C88.6872 154.186 79.7286 144.228 77.7287 132.168C77.5246 133.025 77.3002 133.882 77.0145 134.719C71.6475 151.044 54.016 159.941 37.6905 154.574C29.7931 151.982 23.3649 146.452 19.6101 139.024C15.8552 131.597 15.2226 123.169 17.8347 115.251C20.4059 107.456 25.9974 100.967 33.3235 97.2527C26.2831 97.7628 19.3244 95.8854 13.5084 91.9062C-0.633516 82.1928 -4.26593 62.766 5.44772 48.604C15.1614 34.442 34.5683 30.8301 48.7306 40.5435C49.1796 40.8496 49.6081 41.1557 50.0366 41.5026C50.1387 41.421 50.2611 41.3393 50.3632 41.2577C48.6694 36.3602 48.2204 31.1158 49.0571 26.0346C51.8733 9.09733 67.9538 -2.39143 84.8915 0.424643C93.0951 1.79187 100.278 6.26085 105.115 13.0153C109.951 19.7698 111.869 28.014 110.502 36.2377C110.155 38.2988 109.584 40.3802 108.768 42.4413C108.972 42.6045 109.155 42.7678 109.318 42.931L109.339 42.8902L109.625 43.1147C111.931 41.5638 114.502 40.2986 117.318 39.3599C125.277 36.6663 133.827 37.2377 141.378 40.9924C148.908 44.7268 154.54 51.1752 157.234 59.1541C159.927 67.1329 159.336 75.6628 155.601 83.2131C151.867 90.7431 145.418 96.3752 137.439 99.0688C133.378 100.436 129.072 100.967 124.807 100.62C136.153 107.66 141.888 121.414 138.602 134.617C136.582 142.677 131.562 149.493 124.42 153.778C119.542 156.635 114.032 158.145 108.461 158.166L108.461 158.166L108.461 158.166ZM75.4023 125.25L77.6879 125.373C78.0756 125.393 78.4634 125.434 78.8511 125.434L80.4428 125.434L80.4836 127.026C80.4836 139.881 89.1769 151.044 101.646 154.166C108.89 155.982 116.42 154.86 122.828 151.003C129.236 147.146 133.766 141.045 135.562 133.8C138.786 120.883 132.399 107.415 120.379 101.742L118.93 101.069L119.93 99.0076C120.093 98.6607 120.277 98.3138 120.42 97.9669L120.91 96.7833L122.175 97.0282C126.93 97.9261 131.888 97.5996 136.46 96.0487C143.622 93.6408 149.438 88.5596 152.805 81.7847C156.173 75.0098 156.683 67.3166 154.275 60.154C151.867 52.9914 146.785 47.1755 140.01 43.8085C133.235 40.4415 125.542 39.9313 118.379 42.3392C115.461 43.3188 112.828 44.6656 110.563 46.3389L109.604 47.0531L108.196 45.9716C107.931 45.7675 107.645 45.543 107.4 45.3186L107.38 45.339C107.319 45.2982 107.033 45.0737 105.911 44.1962L104.931 43.4412L105.421 42.3188C106.359 40.1354 107.033 37.9315 107.4 35.748C108.625 28.3813 106.91 20.9738 102.564 14.8927C98.2172 8.81164 91.7686 4.7916 84.3813 3.56722C69.1578 0.996021 54.7302 11.3216 52.1793 26.5447C51.3631 31.4627 51.9141 36.5643 53.7303 41.2577L54.1792 42.4209L53.1589 43.1351C52.4242 43.6453 51.71 44.1962 50.9958 44.7676L49.9958 45.5634L49.0163 44.7472C48.3633 44.1962 47.6694 43.6657 46.9552 43.1759C40.7923 38.9518 33.3438 37.3805 26.0178 38.7477C18.6713 40.115 12.3044 44.2574 8.08019 50.4202C-0.674336 63.1129 2.59076 80.5603 15.3042 89.2942C20.8957 93.1306 27.7116 94.7835 34.507 93.9673L35.7723 93.804L36.1804 95.008C36.4661 95.8446 36.7314 96.5997 37.0375 97.3343L37.6293 98.7627L36.2008 99.3749C28.8952 102.579 23.3037 108.721 20.8141 116.231C18.4877 123.332 19.0591 130.903 22.4262 137.576C25.7933 144.248 31.548 149.207 38.6496 151.534C53.3017 156.349 69.1374 148.35 73.9738 133.698C74.6881 131.515 75.1166 129.25 75.2799 126.781L75.4023 125.25L75.4023 125.25L75.4023 125.25Z" stroke="#000000" stroke-opacity="0.000000" stroke-width="1" stroke-dasharray="0 0" fill-opacity="0" transform="matrix(1 0 0 1 9.87476 7.28223)"/>
	<path d="M37.7963 55.2017C36.8984 55.2017 36.0005 55.0997 35.1026 54.8752C31.1233 53.8753 28.1031 50.8144 27.1235 46.978C26.2052 49.7532 24.2462 51.9979 21.6341 53.3244C19.0016 54.6508 16.0222 54.8752 13.2265 53.957C10.4308 53.0387 8.14519 51.0797 6.81875 48.4677C5.4923 45.8352 5.26783 42.8559 6.18613 40.0602C6.982 37.6115 8.63495 35.53 10.7981 34.1832C8.65536 34.1424 6.55345 33.4894 4.77806 32.265C-0.221611 28.8368 -1.50724 21.9598 1.92111 16.9399C5.34946 11.9403 12.2266 10.6343 17.2466 14.083C17.267 14.083 17.267 14.1034 17.2874 14.1034C16.8181 12.5117 16.7161 10.8384 16.9813 9.22629C17.4711 6.32859 19.0424 3.7778 21.4504 2.06367C23.838 0.349535 26.7562 -0.323874 29.654 0.145474C32.5518 0.635228 35.1026 2.20651 36.8168 4.61446C38.5309 7.002 39.2044 9.92011 38.735 12.8382C38.633 13.5116 38.4493 14.185 38.184 14.8584L38.2044 14.8788C38.9799 14.3687 39.837 13.9606 40.7757 13.6341C43.6123 12.675 46.6121 12.879 49.2854 14.2054C51.9586 15.5318 53.9381 17.8174 54.8972 20.6334C55.8563 23.4495 55.6319 26.4696 54.3258 29.1429C52.9994 31.8161 50.7138 33.7955 47.8977 34.7546C46.7549 35.1423 45.5509 35.3464 44.3469 35.3464L44.3061 35.3464C47.8365 37.9584 49.5506 42.509 48.4691 46.8964C47.7549 49.7533 45.9795 52.1612 43.449 53.6713C41.7144 54.6712 39.7758 55.2017 37.7963 55.2017L37.7963 55.2017ZM26.1236 43.3252L27.2052 43.3661C27.3276 43.3661 27.4297 43.3865 27.5521 43.3865L28.348 43.3865L28.3684 44.1823C28.3684 48.5289 31.307 52.2836 35.5108 53.3448C37.9596 53.9569 40.49 53.5692 42.6532 52.2836C44.8163 50.9776 46.3468 48.9166 46.959 46.4678C48.0406 42.1009 45.8978 37.5707 41.8369 35.6525L41.1022 35.3056L41.4696 34.5913C41.6124 34.3261 41.6736 34.1832 41.7348 34.0404L41.9797 33.4486L42.6123 33.571C44.2245 33.8771 45.8978 33.7547 47.4283 33.2445C49.8568 32.4283 51.8158 30.7141 52.9382 28.4286C54.081 26.1431 54.2442 23.5515 53.428 21.1232C52.6117 18.6948 50.8975 16.7358 48.6119 15.6135C46.3264 14.4707 43.7347 14.3074 41.3063 15.1237C40.3064 15.4706 39.4289 15.9195 38.6738 16.4705L38.1841 16.8174L36.2862 15.3278L36.5311 14.7564C36.8576 14.0218 37.0821 13.2667 37.2045 12.5321C37.6127 10.0425 37.0413 7.53255 35.572 5.49191C34.1027 3.45128 31.9192 2.08406 29.4295 1.67593C24.3074 0.818869 19.4302 4.30835 18.5731 9.43034C18.3078 11.0833 18.4711 12.7974 19.1037 14.3891L19.3282 14.9605L18.818 15.3074C18.5731 15.491 18.3078 15.6747 18.0833 15.8583L17.5732 16.2461L17.0834 15.8379C16.8589 15.6543 16.614 15.4706 16.3896 15.3074C12.0837 12.3689 6.20656 13.4708 3.26798 17.7561C0.329397 22.0415 1.43136 27.9389 5.7168 30.8774C7.61463 32.163 9.9206 32.7344 12.2062 32.4487L12.8388 32.3671L13.0429 32.9792C13.1449 33.2445 13.2265 33.5098 13.3285 33.7751L13.6142 34.4893L12.9 34.7954C10.4308 35.8565 8.55335 37.938 7.71667 40.4888C6.9208 42.8763 7.12487 45.4475 8.24725 47.6922C9.39003 49.9369 11.3287 51.6102 13.7367 52.4061C16.1243 53.2019 18.6955 52.9978 20.9403 51.8551C23.185 50.7123 24.8584 48.7737 25.6543 46.3862C25.8992 45.672 26.042 44.8761 26.1032 44.0599L26.1236 43.3252L26.1236 43.3252L26.1236 43.3252Z" fill="#5D416B" fill-opacity="1.000000" stroke-opacity="0" transform="matrix(1 0 0 1 61.5615 59.0057)"/>
	<path d="M37.7963 55.2017C36.8984 55.2017 36.0005 55.0997 35.1026 54.8752C31.1233 53.8753 28.1031 50.8144 27.1235 46.978C26.2052 49.7532 24.2462 51.9979 21.6341 53.3244C19.0016 54.6508 16.0222 54.8752 13.2265 53.957C10.4308 53.0387 8.14519 51.0797 6.81875 48.4677C5.4923 45.8352 5.26783 42.8559 6.18613 40.0602C6.982 37.6115 8.63495 35.53 10.7981 34.1832C8.65536 34.1424 6.55345 33.4894 4.77806 32.265C-0.221611 28.8368 -1.50724 21.9598 1.92111 16.9399C5.34946 11.9403 12.2266 10.6343 17.2466 14.083C17.267 14.083 17.267 14.1034 17.2874 14.1034C16.8181 12.5117 16.7161 10.8384 16.9813 9.22629C17.4711 6.32859 19.0424 3.7778 21.4504 2.06367C23.838 0.349535 26.7562 -0.323874 29.654 0.145474C32.5518 0.635228 35.1026 2.20651 36.8168 4.61446C38.5309 7.002 39.2044 9.92011 38.735 12.8382C38.633 13.5116 38.4493 14.185 38.184 14.8584L38.2044 14.8788C38.9799 14.3687 39.837 13.9606 40.7757 13.6341C43.6123 12.675 46.6121 12.879 49.2854 14.2054C51.9586 15.5318 53.9381 17.8174 54.8972 20.6334C55.8563 23.4495 55.6319 26.4696 54.3258 29.1429C52.9994 31.8161 50.7138 33.7955 47.8977 34.7546C46.7549 35.1423 45.5509 35.3464 44.3469 35.3464L44.3061 35.3464C47.8365 37.9584 49.5506 42.509 48.4691 46.8964C47.7549 49.7533 45.9795 52.1612 43.449 53.6713C41.7144 54.6712 39.7758 55.2017 37.7963 55.2017L37.7963 55.2017ZM26.1236 43.3252L27.2052 43.3661C27.3276 43.3661 27.4297 43.3865 27.5521 43.3865L28.348 43.3865L28.3684 44.1823C28.3684 48.5289 31.307 52.2836 35.5108 53.3448C37.9596 53.9569 40.49 53.5692 42.6532 52.2836C44.8163 50.9776 46.3468 48.9166 46.959 46.4678C48.0406 42.1009 45.8978 37.5707 41.8369 35.6525L41.1022 35.3056L41.4696 34.5913C41.6124 34.3261 41.6736 34.1832 41.7348 34.0404L41.9797 33.4486L42.6123 33.571C44.2245 33.8771 45.8978 33.7547 47.4283 33.2445C49.8568 32.4283 51.8158 30.7141 52.9382 28.4286C54.081 26.1431 54.2442 23.5515 53.428 21.1232C52.6117 18.6948 50.8975 16.7358 48.6119 15.6135C46.3264 14.4707 43.7347 14.3074 41.3063 15.1237C40.3064 15.4706 39.4289 15.9195 38.6738 16.4705L38.1841 16.8174L36.2862 15.3278L36.5311 14.7564C36.8576 14.0218 37.0821 13.2667 37.2045 12.5321C37.6127 10.0425 37.0413 7.53255 35.572 5.49191C34.1027 3.45128 31.9192 2.08406 29.4295 1.67593C24.3074 0.818869 19.4302 4.30835 18.5731 9.43034C18.3078 11.0833 18.4711 12.7974 19.1037 14.3891L19.3282 14.9605L18.818 15.3074C18.5731 15.491 18.3078 15.6747 18.0833 15.8583L17.5732 16.2461L17.0834 15.8379C16.8589 15.6543 16.614 15.4706 16.3896 15.3074C12.0837 12.3689 6.20656 13.4708 3.26798 17.7561C0.329397 22.0415 1.43136 27.9389 5.7168 30.8774C7.61463 32.163 9.9206 32.7344 12.2062 32.4487L12.8388 32.3671L13.0429 32.9792C13.1449 33.2445 13.2265 33.5098 13.3285 33.7751L13.6142 34.4893L12.9 34.7954C10.4308 35.8565 8.55335 37.938 7.71667 40.4888C6.9208 42.8763 7.12487 45.4475 8.24725 47.6922C9.39003 49.9369 11.3287 51.6102 13.7367 52.4061C16.1243 53.2019 18.6955 52.9978 20.9403 51.8551C23.185 50.7123 24.8584 48.7737 25.6543 46.3862C25.8992 45.672 26.042 44.8761 26.1032 44.0599L26.1236 43.3252L26.1236 43.3252L26.1236 43.3252Z" stroke="#000000" stroke-opacity="0.000000" stroke-width="1" stroke-dasharray="0 0" fill-opacity="0" transform="matrix(1 0 0 1 61.5615 59.0057)"/>
	<path d="M42.7249 30.5355C48.0103 28.25 50.8264 22.577 49.153 17.5979C47.5001 12.6187 42.0106 9.33332 37.0722 11.0066C36.1131 11.3331 34.5213 11.9657 33.7459 12.5371C33.0725 12.0065 34.1132 13.8635 33.2153 13.1493C33.5214 12.4555 33.7459 11.7209 33.8683 10.9454C34.7254 5.82344 31.2767 0.966733 26.1953 0.13007C21.114 -0.726994 16.3184 2.74208 15.4818 7.86407C15.1961 9.59861 15.4205 11.2719 15.9919 12.8024C15.747 12.9657 15.5226 13.1493 15.2777 13.333C15.0532 13.1493 14.8287 12.9657 14.5839 12.8024C10.3392 9.86389 4.5437 10.9658 1.62553 15.2512C-1.27224 19.5365 -0.190679 25.3727 4.03354 28.3112C5.99259 29.658 8.25775 30.1478 10.4413 29.8825C10.5433 30.1274 10.6249 30.3927 10.727 30.6579C8.38019 31.6783 6.46195 33.6781 5.60486 36.3309C3.99272 41.2488 6.64561 46.5749 11.5433 48.187C16.4409 49.7991 19.3999 46.6769 22.7874 42.0039C23.2568 41.3509 23.3996 41.4937 23.4404 40.7183L23.6445 40.7183L24.3587 43.9833C26.2974 48.5951 27.5626 48.9624 31.2358 50.3296C36.0723 52.105 41.4801 47.2279 42.7249 42.1875C43.8268 37.7593 41.6025 33.2904 37.664 31.413C37.7456 31.2293 37.8476 31.0457 37.9293 30.862C39.5006 31.1681 41.1944 31.2089 42.7249 30.5355L42.7249 30.5355L42.7249 30.5355Z" fill="#FFFFFF" fill-opacity="1.000000" stroke-opacity="0" transform="matrix(1 0 0 1 66.1426 62.8983)"/>
	<path d="M42.7249 30.5355C48.0103 28.25 50.8264 22.577 49.153 17.5979C47.5001 12.6187 42.0106 9.33332 37.0722 11.0066C36.1131 11.3331 34.5213 11.9657 33.7459 12.5371C33.0725 12.0065 34.1132 13.8635 33.2153 13.1493C33.5214 12.4555 33.7459 11.7209 33.8683 10.9454C34.7254 5.82344 31.2767 0.966733 26.1953 0.13007C21.114 -0.726994 16.3184 2.74208 15.4818 7.86407C15.1961 9.59861 15.4205 11.2719 15.9919 12.8024C15.747 12.9657 15.5226 13.1493 15.2777 13.333C15.0532 13.1493 14.8287 12.9657 14.5839 12.8024C10.3392 9.86389 4.5437 10.9658 1.62553 15.2512C-1.27224 19.5365 -0.190679 25.3727 4.03354 28.3112C5.99259 29.658 8.25775 30.1478 10.4413 29.8825C10.5433 30.1274 10.6249 30.3927 10.727 30.6579C8.38019 31.6783 6.46195 33.6781 5.60486 36.3309C3.99272 41.2488 6.64561 46.5749 11.5433 48.187C16.4409 49.7991 19.3999 46.6769 22.7874 42.0039C23.2568 41.3509 23.3996 41.4937 23.4404 40.7183L23.6445 40.7183L24.3587 43.9833C26.2974 48.5951 27.5626 48.9624 31.2358 50.3296C36.0723 52.105 41.4801 47.2279 42.7249 42.1875C43.8268 37.7593 41.6025 33.2904 37.664 31.413C37.7456 31.2293 37.8476 31.0457 37.9293 30.862C39.5006 31.1681 41.1944 31.2089 42.7249 30.5355L42.7249 30.5355L42.7249 30.5355Z" stroke="#000000" stroke-opacity="0.000000" stroke-width="1" stroke-dasharray="0 0" fill-opacity="0" transform="matrix(1 0 0 1 66.1426 62.8983)"/>
	<path d="M49.7927 0C49.9355 1.65291 50.0375 3.30583 50.0579 4.99955C50.3436 21.9368 44.7114 37.5885 35.0793 50.0159C49.3845 49.2609 60.6491 36.8334 60.3838 21.7736C60.2614 12.856 56.1188 4.99956 49.7927 4.7137e-06L49.7927 0L49.7927 0ZM9.42763e-06 104.705C4.79561 107.092 10.3055 108.133 16.0194 107.399C31.2837 105.399 42.0585 91.4204 40.079 76.136C39.6505 72.9118 38.6709 69.8917 37.2833 67.1368C30.1613 83.7476 16.9173 97.3382 0 104.705L9.42763e-06 104.705L9.42763e-06 104.705Z" fill="#814C94" fill-opacity="1.000000" stroke-opacity="0" transform="matrix(1 0 0 1 105.929 54.5598)"/>
	<path d="M49.7927 0C49.9355 1.65291 50.0375 3.30583 50.0579 4.99955C50.3436 21.9368 44.7114 37.5885 35.0793 50.0159C49.3845 49.2609 60.6491 36.8334 60.3838 21.7736C60.2614 12.856 56.1188 4.99956 49.7927 4.7137e-06L49.7927 0L49.7927 0ZM9.42763e-06 104.705C4.79561 107.092 10.3055 108.133 16.0194 107.399C31.2837 105.399 42.0585 91.4204 40.079 76.136C39.6505 72.9118 38.6709 69.8917 37.2833 67.1368C30.1613 83.7476 16.9173 97.3382 0 104.705L9.42763e-06 104.705L9.42763e-06 104.705Z" stroke="#000000" stroke-opacity="0.000000" stroke-width="1" stroke-dasharray="0 0" fill-opacity="0" transform="matrix(1 0 0 1 105.929 54.5598)"/>
</svg>
