<svg xmlns="http://www.w3.org/2000/svg" xmlns:xlink="http://www.w3.org/1999/xlink" width="459.011414" height="337.717346" viewBox="0 0 459.011 337.717">
	<path d="M0 -0.318794L438.52 -0.318794L438.52 82L0 82L0 -0.318794Z" stroke-opacity="0" fill-opacity="0.000000" fill="#000000" transform="matrix(1 0 0 1 6.73688 248.981)"/>
	<path d="M19.2176 64.348L4.61348 21.8086L5.62726 21.4606L5.36112 22.4989L-0.736903 20.9358L-0.736903 15.2657L20.6165 14.8933L20.6165 20.9767L13.5318 22.4432L13.3145 21.3936L14.3345 21.0642L25.1033 54.4091L24.0833 54.7385L23.0698 54.3896L34.5253 21.1117L35.5388 21.4606L35.3159 22.509L28.0861 20.972L28.0861 15.2664L48.7528 14.8926L48.7528 20.9384L42.5847 22.4997L42.3217 21.4606L43.3309 21.8217L27.8528 65.0719L19.4661 65.0719L19.2176 64.348ZM21.2451 63.652L20.2313 64L20.2313 62.9281L27.0979 62.9281L27.0979 64L26.0888 63.6388L41.505 20.5617L47.418 19.0649L47.681 20.104L46.6091 20.104L46.6091 15.9841L47.681 15.9841L47.7004 17.0557L29.1773 17.3907L29.1579 16.319L30.2298 16.319L30.2298 20.104L29.1579 20.104L29.3808 19.0556L36.9466 20.6641L24.0509 58.1257L11.9274 20.5861L19.3274 19.0544L19.5447 20.104L18.4728 20.104L18.4728 15.9841L19.5447 15.9841L19.5634 17.0558L0.353643 17.3907L0.334956 16.319L1.40682 16.319L1.40682 20.104L0.334956 20.104L0.6011 19.0657L6.45335 20.5658L21.2451 63.652ZM20.2313 64L5.62726 21.4606L0.334956 20.104L0.334956 16.319L19.5447 15.9841L19.5447 20.104L13.3145 21.3936L24.0833 54.7385L35.5388 21.4606L29.1579 20.104L29.1579 16.319L47.681 15.9841L47.681 20.104L42.3217 21.4606L27.0979 64L20.2313 64ZM59.6721 10.4573Q65.2156 10.4573 65.2156 16.6707Q65.2156 19.3255 63.2732 20.8196Q61.476 22.1975 59.4041 22.1975Q57.0751 22.1975 55.5844 20.579Q54.1453 18.994 54.1453 16.319Q54.1453 13.6099 55.7371 12.0391Q57.3189 10.4573 59.6721 10.4573ZM59.6721 12.601Q58.2068 12.601 57.2429 13.5649Q56.289 14.5062 56.289 16.319Q56.289 18.166 57.1612 19.1266Q58.0151 20.0538 59.4041 20.0538Q60.7488 20.0538 61.9662 19.1204Q63.0719 18.2699 63.0719 16.6707Q63.0719 12.601 59.6721 12.601ZM64.529 27.6405L64.529 58.5067L63.4571 58.5067L63.798 57.4905L69.6705 59.4608L69.6705 65.0719L49.6904 65.0719L49.6904 59.4312L56.2863 57.4789L56.5905 58.5067L55.5186 58.5067L55.5186 33.1338L56.5905 33.1338L56.3447 34.1771L49.6904 32.6091L49.6904 26.9497L64.529 26.5386L64.529 27.6405ZM62.3852 27.6405L63.4571 27.6405L63.4868 28.712L50.7919 29.0637L50.7623 27.9922L51.8341 27.9922L51.8341 31.7605L50.7623 31.7605L51.0081 30.7172L57.6624 32.2852L57.6624 59.3073L51.0665 61.2595L50.7623 60.2317L51.8341 60.2317L51.8341 64L50.7623 64L50.7623 62.9281L68.5987 62.9281L68.5987 64L67.5268 64L67.5268 60.2317L68.5987 60.2317L68.2577 61.2479L62.3852 59.2777L62.3852 27.6405ZM59.6721 11.5291Q64.1438 11.5291 64.1438 16.6707Q64.1438 18.7977 62.6197 19.97Q61.1124 21.1256 59.4041 21.1256Q57.5451 21.1256 56.3728 19.8528Q55.2172 18.58 55.2172 16.319Q55.2172 14.0581 56.49 12.802Q57.7628 11.5291 59.6721 11.5291ZM63.4571 27.6405L63.4571 58.5067L68.5987 60.2317L68.5987 64L50.7623 64L50.7623 60.2317L56.5905 58.5067L56.5905 33.1338L50.7623 31.7605L50.7623 27.9922L63.4571 27.6405ZM72.6693 46.3646Q72.6693 41.7951 73.9852 38.0228Q75.3327 34.2108 77.8094 31.5202Q80.3087 28.8067 83.7001 27.3431Q87.1033 25.882 91.1589 25.882Q99.3333 25.882 103.908 31.1226Q108.426 36.2991 108.426 45.3429Q108.426 49.7794 107.126 53.4854Q105.819 57.2111 103.459 59.9442Q101.075 62.6868 97.6616 64.2237Q94.2708 65.7585 90.1373 65.7585Q81.846 65.7585 77.2401 60.7568Q72.6693 55.7754 72.6693 46.3646ZM74.813 46.3646Q74.813 54.9409 78.8171 59.3047Q82.7861 63.6148 90.1373 63.6148Q93.8082 63.6148 96.7815 62.269Q99.7658 60.9253 101.837 58.543Q103.931 56.1178 105.103 52.7759Q106.282 49.4144 106.282 45.3429Q106.282 37.1031 102.293 32.5323Q98.359 28.0257 91.1589 28.0257Q87.544 28.0257 84.5495 29.3113Q81.5767 30.5943 79.3866 32.9721Q77.2075 35.3394 76.0093 38.7289Q74.813 42.1582 74.813 46.3646ZM90.8909 33.519Q82.0146 33.519 82.0146 45.8286Q82.0146 58.1215 90.5392 58.1215Q94.9755 58.1215 96.9514 55.1793Q99.0806 52.0164 99.0806 45.4769Q99.0806 33.519 90.8909 33.519ZM90.8909 31.3753Q101.224 31.3753 101.224 45.4769Q101.224 52.6707 98.7311 56.3744Q96.1181 60.2652 90.5392 60.2652Q79.8709 60.2652 79.8709 45.8286Q79.8709 31.3753 90.8909 31.3753ZM73.7412 46.3646Q73.7412 41.9766 74.9972 38.3759Q76.2701 34.7751 78.598 32.2462Q80.9427 29.7005 84.1248 28.3272Q87.3236 26.9539 91.1589 26.9539Q98.8461 26.9539 103.1 31.8275Q107.354 36.7011 107.354 45.3429Q107.354 49.5969 106.115 53.1307Q104.875 56.6645 102.648 59.2436Q100.42 61.806 97.2216 63.2463Q94.0395 64.6867 90.1373 64.6867Q82.316 64.6867 78.0286 60.0308Q73.7412 55.3581 73.7412 46.3646ZM90.8909 32.4471Q80.9427 32.4471 80.9427 45.8286Q80.9427 59.1934 90.5392 59.1934Q95.5468 59.1934 97.8412 55.7768Q100.152 52.3435 100.152 45.4769Q100.152 32.4471 90.8909 32.4471ZM125.702 11.1774L125.702 58.5067L124.63 58.5067L124.891 57.4672L132.569 59.3959L132.569 65.0719L110.729 65.0719L110.729 59.4305L117.343 57.4787L117.646 58.5067L116.574 58.5067L116.574 16.6707L117.646 16.6707L117.401 17.7142L110.729 16.1466L110.729 10.4863L125.702 10.0758L125.702 11.1774ZM123.558 11.1774L124.63 11.1774L124.659 12.2489L111.831 12.6006L111.801 11.5291L112.873 11.5291L112.873 15.2974L111.801 15.2974L112.046 14.2539L118.718 15.8215L118.718 59.3079L112.105 61.2598L111.801 60.2317L112.873 60.2317L112.873 64L111.801 64L111.801 62.9281L131.497 62.9281L131.497 64L130.425 64L130.425 60.2317L131.497 60.2317L131.235 61.2713L123.558 59.3426L123.558 11.1774ZM124.63 11.1774L124.63 58.5067L131.497 60.2317L131.497 64L111.801 64L111.801 60.2317L117.646 58.5067L117.646 16.6707L111.801 15.2974L111.801 11.5291L124.63 11.1774ZM165.456 47.7881L141.791 47.9221L141.785 46.8503L142.857 46.8503Q142.857 52.0993 145.333 55.1712Q147.723 58.1215 151.734 58.1215Q153.146 58.1215 154.561 57.8701Q156.001 57.6141 157.276 57.2157Q158.549 56.8177 159.575 56.3444Q160.609 55.8587 161.302 55.4118L163.559 53.9532L167.091 59.2142L166.32 59.83Q163.919 61.7471 161.878 62.8636Q159.845 63.9678 157.104 64.8526Q154.297 65.7585 151.047 65.7585Q142.463 65.7585 137.955 60.4753Q133.512 55.2676 133.512 46.3646Q133.512 41.932 134.792 38.1958Q136.101 34.4289 138.464 31.7104Q140.858 28.9596 144.145 27.4231Q147.442 25.882 151.382 25.882Q166.874 25.882 166.874 43.082L166.874 43.1337L166.424 47.7826L165.456 47.7881ZM165.444 45.6444L165.45 46.7163L164.383 46.613L164.735 42.9788L165.802 43.082L164.73 43.082Q164.73 28.0257 151.382 28.0257Q147.919 28.0257 145.053 29.3652Q142.177 30.7094 140.082 33.1169Q137.99 35.5232 136.82 38.8909Q135.656 42.2892 135.656 46.3646Q135.656 54.4773 139.586 59.0838Q143.452 63.6148 151.047 63.6148Q153.96 63.6148 156.445 62.8125Q158.997 61.9889 160.849 60.9829Q162.727 59.9557 164.982 58.1548L165.651 58.9924L164.761 59.5899L162.366 56.0226L163.256 55.4251L163.838 56.3253L162.463 57.2137Q161.65 57.7382 160.473 58.2908Q159.321 58.8224 157.915 59.2618Q156.51 59.7008 154.936 59.9807Q153.335 60.2652 151.734 60.2652Q146.7 60.2652 143.664 56.5164Q140.714 52.8557 140.714 46.8503L140.714 45.7844L165.444 45.6444ZM142.053 40.6368L158.516 40.6368L158.516 41.7087L157.445 41.7087Q157.445 37.8558 155.842 35.5347Q154.382 33.385 150.98 33.385Q147.546 33.385 145.538 35.6673Q143.443 38.0335 143.121 41.7998L142.053 41.7087L142.053 40.6368ZM142.053 42.7805L140.886 42.7805L140.985 41.6175Q141.367 37.1439 143.928 34.2513Q146.576 31.2413 150.98 31.2413Q155.517 31.2413 157.607 34.3169Q159.588 37.1877 159.588 41.7087L159.588 42.7805L142.053 42.7805ZM165.45 46.7163L141.785 46.8503Q141.785 52.4775 144.499 55.8438Q147.212 59.1934 151.734 59.1934Q153.241 59.1934 154.748 58.9254Q156.255 58.6575 157.595 58.2388Q158.935 57.8201 160.024 57.3176Q161.129 56.7984 161.883 56.3128L163.256 55.4251L165.651 58.9924Q163.323 60.8514 161.364 61.9233Q159.421 62.9784 156.775 63.8325Q154.128 64.6867 151.047 64.6867Q142.958 64.6867 138.771 59.7796Q134.584 54.8724 134.584 46.3646Q134.584 42.1106 135.806 38.5433Q137.046 34.9761 139.273 32.4137Q141.517 29.8345 144.599 28.3942Q147.681 26.9539 151.382 26.9539Q165.802 26.9539 165.802 43.082L165.45 46.7163ZM142.053 41.7087L158.516 41.7087Q158.516 37.5217 156.724 34.9258Q154.949 32.3132 150.98 32.3132Q147.061 32.3132 144.733 34.9593Q142.405 37.5887 142.053 41.7087ZM184.353 17.977L184.353 27.9922L183.282 27.9922L183.282 26.9204L194.302 26.9204L194.302 34.2057L183.282 34.2057L183.282 33.1338L184.353 33.1338L184.353 55.1572Q184.353 58.2555 186.715 58.2555Q188.637 58.2555 191.546 56.677L192.512 56.1532L195.286 61.5771L194.551 62.1171Q189.595 65.7585 184.32 65.7585Q180.362 65.7585 177.851 63.133Q175.36 60.5278 175.36 54.7385L175.36 33.1338L176.432 33.1338L176.432 34.2057L168.493 34.2057L168.493 27.7089L176.325 26.9257L176.432 27.9922L175.36 27.9922L175.36 18.4721L184.353 16.669L184.353 17.977ZM182.21 17.977L183.282 17.977L183.492 19.028L176.642 20.4013L176.432 19.3504L177.504 19.3504L177.504 28.9622L169.672 29.7454L169.565 28.6789L170.637 28.6789L170.637 33.1338L169.565 33.1338L169.565 32.0619L177.504 32.0619L177.504 54.7385Q177.504 59.6678 179.4 61.6514Q181.278 63.6148 184.32 63.6148Q188.892 63.6148 193.282 60.3896L193.916 61.2534L192.962 61.7415L191.103 58.1072L192.057 57.6191L192.569 58.5612Q189.181 60.3992 186.715 60.3992Q182.21 60.3992 182.21 55.1572L182.21 32.0619L193.23 32.0619L193.23 33.1338L192.158 33.1338L192.158 27.9922L193.23 27.9922L193.23 29.0641L182.21 29.0641L182.21 17.977ZM183.282 17.977L183.282 27.9922L193.23 27.9922L193.23 33.1338L183.282 33.1338L183.282 55.1572Q183.282 59.3274 186.715 59.3274Q188.909 59.3274 192.057 57.6191L193.916 61.2534Q189.244 64.6867 184.32 64.6867Q180.82 64.6867 178.626 62.3922Q176.432 60.0978 176.432 54.7385L176.432 33.1338L169.565 33.1338L169.565 28.6789L176.432 27.9922L176.432 19.3504L183.282 17.977ZM228.213 57.4349L236.101 57.4349Q242.392 57.4349 245.872 53.1729Q249.432 48.7972 249.432 39.7827Q249.432 30.7096 245.981 26.5868Q242.6 22.5324 236.453 22.5324L228.213 22.5324L228.213 21.4606L229.285 21.4606L229.285 58.5067L228.213 58.5067L228.213 57.4349ZM227.141 59.5786L227.141 20.3887L236.453 20.3887Q243.603 20.3887 247.625 25.2107Q251.576 29.9308 251.576 39.7827Q251.576 49.5592 247.533 54.5288Q243.409 59.5786 236.101 59.5786L228.213 59.5786L227.141 59.5786ZM214.111 64L214.111 59.0314L220.765 57.4634L221.011 58.5067L219.939 58.5067L219.939 21.4606L221.011 21.4606L220.768 22.5045L214.111 20.955L214.111 15.2744L228.199 14.9122L236.788 14.9122Q242.061 14.9122 246.25 16.5245Q250.499 18.1535 253.448 21.3157Q256.386 24.4661 257.934 29.0566Q259.464 33.577 259.464 39.3807Q259.464 45.1755 257.795 49.8878Q256.114 54.6159 253.002 58.0086Q249.896 61.397 245.493 63.2465Q241.122 65.0719 235.766 65.0719L214.111 65.0719L214.111 64ZM216.255 64L215.183 64L215.183 62.9281L235.766 62.9281Q240.693 62.9281 244.663 61.27Q248.633 59.6024 251.422 56.5597Q254.24 53.4877 255.774 49.172Q257.32 44.807 257.32 39.3807Q257.32 33.93 255.903 29.7415Q254.503 25.5896 251.881 22.7778Q249.269 19.9778 245.48 18.5252Q241.663 17.0559 236.788 17.0559L228.213 17.0559L228.213 15.9841L228.24 17.0556L215.21 17.3905L215.183 16.319L216.255 16.319L216.255 20.104L215.183 20.104L215.426 19.0601L222.083 20.6096L222.083 59.3554L215.429 60.9233L215.183 59.88L216.255 59.88L216.255 64ZM228.213 58.5067L236.101 58.5067Q242.901 58.5067 246.702 53.8508Q250.504 49.1782 250.504 39.7827Q250.504 30.3202 246.803 25.8988Q243.101 21.4606 236.453 21.4606L228.213 21.4606L228.213 58.5067ZM215.183 64L215.183 59.88L221.011 58.5067L221.011 21.4606L215.183 20.104L215.183 16.319L228.213 15.9841L236.788 15.9841Q241.862 15.9841 245.865 17.5249Q249.884 19.0657 252.664 22.0468Q255.445 25.0279 256.918 29.399Q258.392 33.7535 258.392 39.3807Q258.392 44.9912 256.784 49.5299Q255.177 54.0518 252.212 57.2841Q249.265 60.4997 245.078 62.2582Q240.908 64 235.766 64L215.183 64ZM294.755 47.7881L271.091 47.9221L271.085 46.8503L272.156 46.8503Q272.156 52.0993 274.632 55.1712Q277.022 58.1215 281.033 58.1215Q282.445 58.1215 283.86 57.8701Q285.3 57.6141 286.575 57.2157Q287.848 56.8177 288.874 56.3444Q289.908 55.8587 290.601 55.4118L292.858 53.9532L296.39 59.2142L295.619 59.83Q293.218 61.7471 291.177 62.8636Q289.144 63.9678 286.403 64.8526Q283.596 65.7585 280.346 65.7585Q271.762 65.7585 267.255 60.4753Q262.811 55.2676 262.811 46.3646Q262.811 41.932 264.092 38.1958Q265.4 34.4289 267.763 31.7104Q270.157 28.9596 273.444 27.4231Q276.742 25.882 280.681 25.882Q296.173 25.882 296.173 43.082L296.173 43.1337L295.723 47.7826L294.755 47.7881ZM294.743 45.6444L294.749 46.7163L293.682 46.613L294.034 42.9788L295.101 43.082L294.029 43.082Q294.029 28.0257 280.681 28.0257Q277.218 28.0257 274.352 29.3652Q271.476 30.7094 269.381 33.1169Q267.29 35.5232 266.12 38.8909Q264.955 42.2892 264.955 46.3646Q264.955 54.4773 268.885 59.0838Q272.751 63.6148 280.346 63.6148Q283.259 63.6148 285.745 62.8125Q288.296 61.9889 290.148 60.9829Q292.026 59.9557 294.281 58.1548L294.95 58.9924L294.06 59.5899L291.665 56.0226L292.555 55.4251L293.137 56.3253L291.763 57.2137Q290.949 57.7382 289.772 58.2908Q288.62 58.8224 287.214 59.2618Q285.809 59.7008 284.235 59.9807Q282.635 60.2652 281.033 60.2652Q276 60.2652 272.963 56.5164Q270.013 52.8557 270.013 46.8503L270.013 45.7844L294.743 45.6444ZM271.353 40.6368L287.816 40.6368L287.816 41.7087L286.744 41.7087Q286.744 37.8558 285.141 35.5347Q283.681 33.385 280.279 33.385Q276.845 33.385 274.837 35.6673Q272.742 38.0335 272.42 41.7998L271.353 41.7087L271.353 40.6368ZM271.353 42.7805L270.185 42.7805L270.285 41.6175Q270.666 37.1439 273.227 34.2513Q275.875 31.2413 280.279 31.2413Q284.816 31.2413 286.906 34.3169Q288.887 37.1877 288.887 41.7087L288.887 42.7805L271.353 42.7805ZM294.749 46.7163L271.085 46.8503Q271.085 52.4775 273.798 55.8438Q276.511 59.1934 281.033 59.1934Q282.54 59.1934 284.047 58.9254Q285.555 58.6575 286.894 58.2388Q288.234 57.8201 289.323 57.3176Q290.428 56.7984 291.182 56.3128L292.555 55.4251L294.95 58.9924Q292.622 60.8514 290.663 61.9233Q288.72 62.9784 286.074 63.8325Q283.428 64.6867 280.346 64.6867Q272.257 64.6867 268.07 59.7796Q263.883 54.8724 263.883 46.3646Q263.883 42.1106 265.106 38.5433Q266.345 34.9761 268.572 32.4137Q270.817 29.8345 273.898 28.3942Q276.98 26.9539 280.681 26.9539Q295.101 26.9539 295.101 43.082L294.749 46.7163ZM271.353 41.7087L287.816 41.7087Q287.816 37.5217 286.024 34.9258Q284.248 32.3132 280.279 32.3132Q276.36 32.3132 274.032 34.9593Q271.704 37.5887 271.353 41.7087ZM300.64 51.9583L306.39 51.9583L307.263 58.7895L306.2 58.9254L306.59 57.9269Q307.152 58.1464 308.493 58.314Q309.895 58.4732 311.274 58.4732Q315.422 58.4732 317.161 57.3134Q318.71 56.2892 318.71 54.1188Q318.71 52.8024 317.72 52.0356Q316.445 51.0341 314.484 50.3392Q312.378 49.5766 309.895 48.8315Q307.286 48.0436 305.057 46.7977Q302.726 45.4761 301.184 43.3829Q299.568 41.1708 299.568 37.6557Q299.568 31.995 303.408 28.96Q307.123 26.0247 313.175 25.8823L313.203 25.8817L313.23 25.8824Q315.678 25.9509 318.226 26.2758Q320.829 26.5881 323.537 27.4386L326.013 28.2396L325.772 39.3472L319.395 39.3472L318.113 33.15L319.163 32.9328L318.759 33.9259Q318.322 33.7483 316.836 33.4668Q315.354 33.1673 313.686 33.1673Q312.551 33.1673 311.549 33.3648Q310.621 33.5362 309.904 33.9359Q309.308 34.2635 308.938 34.9068Q308.578 35.5431 308.578 36.5671Q308.578 38.032 309.587 38.8491Q310.863 39.8818 312.833 40.6417Q314.922 41.4478 317.379 42.1899Q320.005 42.9777 322.237 44.243Q324.554 45.5386 326.097 47.5768Q327.721 49.7227 327.721 53.0972Q327.721 56.2596 326.343 58.6989Q324.985 61.1032 322.694 62.716Q320.441 64.302 317.472 65.0711Q314.577 65.8255 311.274 65.8255Q310.077 65.8255 308.762 65.7217Q307.452 65.6183 306.176 65.4287Q304.94 65.2593 303.842 65.0535Q302.721 64.84 301.974 64.603L302.298 63.5813L302.033 64.6199L299.658 64.0137L299.559 51.9583L300.64 51.9583ZM300.64 54.1021L300.64 53.0302L301.711 53.0213L301.795 63.1705L300.723 63.1794L300.989 62.1408L302.592 62.5503L302.622 62.5596Q303.247 62.758 304.237 62.9465Q305.283 63.1426 306.491 63.3082Q307.694 63.487 308.93 63.5846Q310.161 63.6818 311.274 63.6818Q314.302 63.6818 316.934 62.9959Q319.526 62.3246 321.46 60.9631Q323.356 59.6283 324.476 57.6446Q325.577 55.696 325.577 53.0972Q325.577 50.4424 324.387 48.8704Q323.116 47.1905 321.18 46.1079Q319.158 44.9616 316.759 44.2421Q314.225 43.4768 312.061 42.6417Q309.777 41.7603 308.239 40.5153Q306.434 39.0547 306.434 36.5671Q306.434 34.9785 307.079 33.8395Q307.748 32.6741 308.86 32.0637Q309.885 31.4921 311.134 31.2615Q312.342 31.0236 313.686 31.0236Q315.569 31.0236 317.235 31.3605Q318.931 31.6819 319.566 31.9398L320.096 32.1552L321.318 38.0582L320.268 38.2754L320.268 37.2035L324.723 37.2035L324.723 38.2754L323.651 38.2521L323.852 28.9906L324.924 29.0138L324.594 30.0337L322.894 29.4838Q320.377 28.6929 317.955 28.4023Q315.512 28.0908 313.171 28.0253L313.2 26.9539L313.226 28.0254Q307.89 28.151 304.737 30.642Q301.711 33.0332 301.711 37.6557Q301.711 40.4713 302.909 42.1112Q304.181 43.8365 306.103 44.9266Q308.129 46.0588 310.511 46.7782Q313.052 47.5405 315.2 48.3186Q317.493 49.131 319.031 50.3402Q320.854 51.7507 320.854 54.1188Q320.854 57.4417 318.35 59.0971Q316.071 60.6169 311.274 60.6169Q309.773 60.6169 308.227 60.4412Q306.621 60.2404 305.81 59.9239L305.217 59.6926L304.383 53.1661L305.446 53.0302L305.446 54.1021L300.64 54.1021ZM300.64 53.0302L305.446 53.0302L306.2 58.9254Q306.887 59.1934 308.36 59.3776Q309.834 59.5451 311.274 59.5451Q315.746 59.5451 317.756 58.2053Q319.782 56.8654 319.782 54.1188Q319.782 52.2765 318.376 51.1879Q316.969 50.0826 314.842 49.3289Q312.715 48.5585 310.203 47.8049Q307.707 47.0512 305.58 45.8621Q303.453 44.6563 302.046 42.747Q300.64 40.821 300.64 37.6557Q300.64 32.5141 304.073 29.801Q307.506 27.0878 313.2 26.9539Q315.595 27.0209 318.091 27.3391Q320.603 27.6405 323.216 28.4612L324.924 29.0138L324.723 38.2754L320.268 38.2754L319.163 32.9328Q318.627 32.7151 317.036 32.4137Q315.461 32.0954 313.686 32.0954Q312.447 32.0954 311.341 32.3132Q310.253 32.5141 309.382 32.9998Q308.528 33.4688 308.009 34.3731Q307.506 35.2608 307.506 36.5671Q307.506 38.5433 308.913 39.6822Q310.32 40.821 312.447 41.6417Q314.574 42.4623 317.069 43.216Q319.581 43.9696 321.708 45.1755Q323.835 46.3646 325.242 48.2236Q326.649 50.0826 326.649 53.0972Q326.649 55.9778 325.41 58.1718Q324.17 60.3657 322.077 61.8395Q319.983 63.3133 317.203 64.0335Q314.44 64.7537 311.274 64.7537Q310.119 64.7537 308.846 64.6532Q307.573 64.5527 306.334 64.3685Q305.111 64.201 304.039 64Q302.984 63.799 302.298 63.5813L300.723 63.1794L300.64 53.0302ZM341.455 10.4573Q346.999 10.4573 346.999 16.6707Q346.999 19.3255 345.056 20.8196Q343.259 22.1975 341.187 22.1975Q338.858 22.1975 337.367 20.579Q335.928 18.994 335.928 16.319Q335.928 13.6099 337.52 12.0391Q339.102 10.4573 341.455 10.4573ZM341.455 12.601Q339.99 12.601 339.026 13.5649Q338.072 14.5062 338.072 16.319Q338.072 18.166 338.944 19.1266Q339.798 20.0538 341.187 20.0538Q342.532 20.0538 343.749 19.1204Q344.855 18.2699 344.855 16.6707Q344.855 12.601 341.455 12.601ZM346.312 27.6405L346.312 58.5067L345.24 58.5067L345.581 57.4905L351.454 59.4608L351.454 65.0719L331.473 65.0719L331.473 59.4312L338.069 57.4789L338.374 58.5067L337.302 58.5067L337.302 33.1338L338.374 33.1338L338.128 34.1771L331.473 32.6091L331.473 26.9497L346.312 26.5386L346.312 27.6405ZM344.168 27.6405L345.24 27.6405L345.27 28.712L332.575 29.0637L332.545 27.9922L333.617 27.9922L333.617 31.7605L332.545 31.7605L332.791 30.7172L339.445 32.2852L339.445 59.3073L332.85 61.2595L332.545 60.2317L333.617 60.2317L333.617 64L332.545 64L332.545 62.9281L350.382 62.9281L350.382 64L349.31 64L349.31 60.2317L350.382 60.2317L350.041 61.2479L344.168 59.2777L344.168 27.6405ZM341.455 11.5291Q345.927 11.5291 345.927 16.6707Q345.927 18.7977 344.403 19.97Q342.895 21.1256 341.187 21.1256Q339.328 21.1256 338.156 19.8528Q337 18.58 337 16.319Q337 14.0581 338.273 12.802Q339.546 11.5291 341.455 11.5291ZM345.24 27.6405L345.24 58.5067L350.382 60.2317L350.382 64L332.545 64L332.545 60.2317L338.374 58.5067L338.374 33.1338L332.545 31.7605L332.545 27.9922L345.24 27.6405ZM371.301 54.1021Q368.133 54.1021 365.859 53.4396L366.159 52.4105L367.229 52.4689L366.878 58.9168L365.807 58.8584L365.807 57.7866L376.442 57.7866Q383.525 57.7866 387.291 60.5387Q391.231 63.3851 391.231 69.0746Q391.231 75.1846 386.262 78.7544Q381.461 82.2216 372.322 82.2216Q354.787 82.2216 354.787 71.2016Q354.787 66.3011 359.878 62.9692Q361.078 62.2121 362.692 61.6203L363.061 62.6267L362.906 63.6874Q360.744 63.3728 359.364 62.135Q357.886 60.7672 357.886 58.9924Q357.886 56.4277 360.708 51.8482L361.617 50.4002L362.525 50.9702L362.169 51.9815Q361.332 51.6874 360.094 50.5068Q358.949 49.398 358.197 48.2621Q356.161 45.1061 356.161 40.3354Q356.161 33.321 360.629 29.5665Q365.015 25.882 372.322 25.882Q376.395 25.882 378.858 26.9404L379.624 27.2807L379.189 28.2602L379.165 27.1886L392.269 26.8962L392.269 32.6898L384.683 33.7761L384.531 32.7151L385.389 32.072Q387.462 34.8365 387.462 39.6487Q387.462 46.8709 383.018 50.5253Q378.687 54.1021 371.301 54.1021ZM371.301 51.9583Q377.916 51.9583 381.657 48.8695Q385.319 45.8582 385.319 39.6487Q385.319 35.5511 383.674 33.3582L382.588 31.9106L391.045 30.6995L391.197 31.7605L390.125 31.7605L390.125 27.9922L391.197 27.9922L391.221 29.0638L378.973 29.3371L378.012 28.9101Q375.954 28.0257 372.322 28.0257Q365.796 28.0257 362.008 31.2078Q358.304 34.3199 358.304 40.3354Q358.304 44.4744 359.986 47.0797Q360.608 48.0205 361.573 48.955Q362.478 49.8176 362.88 49.959L364.146 50.4038L362.533 52.9729Q360.029 57.0352 360.029 58.9924Q360.029 59.8302 360.795 60.5392Q361.693 61.3446 363.215 61.566L363.43 63.633Q362.029 64.1466 361.052 64.7628Q356.931 67.4601 356.931 71.2016Q356.931 80.0779 372.322 80.0779Q380.768 80.0779 385.011 77.0135Q389.087 74.0852 389.087 69.0746Q389.087 64.4809 386.026 62.2695Q382.825 59.9303 376.442 59.9303L364.675 59.9303L365.162 51.0037L366.459 51.3814Q368.439 51.9583 371.301 51.9583ZM374.734 65.0719L367.181 65.0719L367.181 64L367.579 64.9952Q367.364 65.0809 366.465 65.7254Q365.577 66.3731 365.1 66.9074Q363.798 68.3899 363.798 70.1799Q363.798 72.8498 365.812 73.7993Q368.24 74.9363 373.361 74.9363Q382.572 74.9363 382.572 69.4933Q382.572 66.9751 380.917 66.1041Q378.927 65.0719 374.734 65.0719ZM374.734 62.9281Q379.45 62.9281 381.916 64.2071Q384.716 65.6808 384.716 69.4933Q384.716 77.08 373.361 77.08Q367.763 77.08 364.898 75.7384Q361.654 74.2092 361.654 70.1799Q361.654 67.582 363.5 65.4805Q364.129 64.7755 365.216 63.9829Q366.327 63.187 366.783 63.0048L366.974 62.9281L374.734 62.9281ZM371.987 32.8323Q365.171 32.8323 365.171 39.9837Q365.171 43.3722 366.822 45.2986Q368.425 47.1517 371.569 47.1517Q375.298 47.1517 376.857 45.5229Q378.452 43.8715 378.452 39.9837Q378.452 32.8323 371.987 32.8323ZM371.987 30.6886Q380.596 30.6886 380.596 39.9837Q380.596 44.7377 378.406 47.0053Q376.213 49.2954 371.569 49.2954Q367.444 49.2954 365.195 46.6937Q363.027 44.1652 363.027 39.9837Q363.027 30.6886 371.987 30.6886ZM371.301 53.0302Q368.286 53.0302 366.159 52.4105L365.807 58.8584L376.442 58.8584Q383.175 58.8584 386.658 61.4041Q390.159 63.933 390.159 69.0746Q390.159 74.6349 385.637 77.8839Q381.115 81.1497 372.322 81.1497Q355.859 81.1497 355.859 71.2016Q355.859 66.8806 360.465 63.866Q361.553 63.1794 363.061 62.6267Q361.218 62.3587 360.08 61.3371Q358.958 60.2987 358.958 58.9924Q358.958 56.7315 361.62 52.4105L362.525 50.9702Q361.905 50.7525 360.833 49.7309Q359.778 48.7093 359.092 47.6709Q357.233 44.7903 357.233 40.3354Q357.233 33.8205 361.319 30.3872Q365.405 26.9539 372.322 26.9539Q376.174 26.9539 378.435 27.9252L379.189 28.2602L391.197 27.9922L391.197 31.7605L384.531 32.7151Q386.39 35.1938 386.39 39.6487Q386.39 46.3646 382.337 49.6974Q378.301 53.0302 371.301 53.0302ZM374.734 64L367.181 64Q366.846 64.134 365.841 64.8541Q364.853 65.5743 364.3 66.194Q362.726 67.986 362.726 70.1799Q362.726 73.5295 365.355 74.7688Q368.001 76.0082 373.361 76.0082Q383.644 76.0082 383.644 69.4933Q383.644 66.3279 381.416 65.1556Q379.189 64 374.734 64ZM371.987 31.7605Q364.099 31.7605 364.099 39.9837Q364.099 43.7687 366.008 45.9961Q367.934 48.2236 371.569 48.2236Q375.756 48.2236 377.631 46.2641Q379.524 44.3046 379.524 39.9837Q379.524 31.7605 371.987 31.7605ZM408.036 27.5053L408.656 32.3789L407.593 32.5141L406.921 31.6791Q407.614 31.1214 408.842 30.162Q410.155 29.133 411.914 28.2008Q413.69 27.2689 415.786 26.5877Q417.975 25.882 420.338 25.882Q426.401 25.882 429.436 29.5347Q432.396 33.0801 432.396 39.297L432.396 58.5067L431.324 58.5067L431.665 57.4905L437.538 59.4608L437.538 65.0719L418.931 65.0719L418.931 59.4974L424.071 57.5072L424.458 58.5067L423.386 58.5067L423.386 39.9837Q423.386 36.6682 422.191 35.2237Q421.07 33.854 418.63 33.854Q417.333 33.854 416.065 34.2011Q414.761 34.5428 413.66 35.1088Q412.559 35.6823 411.696 36.3454Q410.855 37.0025 410.298 37.6202L409.502 36.9021L410.322 37.5922L409.167 38.9655L408.346 38.2754L409.418 38.2754L409.418 58.5067L408.346 58.5067L408.733 57.5072L413.873 59.4974L413.873 65.0719L394.58 65.0719L394.58 59.4312L401.176 57.4789L401.48 58.5067L400.408 58.5067L400.408 33.1338L401.48 33.1338L401.234 34.1771L394.58 32.6091L394.58 26.9531L407.913 26.5389L408.036 27.5053ZM405.91 27.7757L406.973 27.6405L407.006 28.7119L395.685 29.0636L395.652 27.9922L396.723 27.9922L396.723 31.7605L395.652 31.7605L395.897 30.7172L402.552 32.2852L402.552 59.3073L395.956 61.2595L395.652 60.2317L396.723 60.2317L396.723 64L395.652 64L395.652 62.9281L412.801 62.9281L412.801 64L411.729 64L411.729 60.2317L412.801 60.2317L412.414 61.2313L407.275 59.2411L407.275 37.8844L408.694 36.1977L408.706 36.184Q409.388 35.4283 410.39 34.6451Q411.402 33.8679 412.68 33.2021Q413.99 32.5287 415.499 32.1335Q417.045 31.7102 418.63 31.7102Q422.085 31.7102 423.843 33.8576Q425.53 35.8966 425.53 39.9837L425.53 59.2411L420.39 61.2313L420.003 60.2317L421.075 60.2317L421.075 64L420.003 64L420.003 62.9281L436.466 62.9281L436.466 64L435.394 64L435.394 60.2317L436.466 60.2317L436.125 61.2479L430.253 59.2777L430.253 39.297Q430.253 33.8574 427.787 30.9046Q425.395 28.0257 420.338 28.0257Q418.312 28.0257 416.449 28.6264Q414.525 29.2515 412.918 30.0949Q411.327 30.9379 410.162 31.8517Q408.945 32.8015 408.265 33.3491L406.771 34.5512L405.91 27.7757ZM406.973 27.6405L407.593 32.5141Q408.279 31.9615 409.502 31.0068Q410.741 30.0355 412.416 29.1478Q414.108 28.2602 416.117 27.607Q418.144 26.9539 420.338 26.9539Q425.898 26.9539 428.611 30.2197Q431.324 33.4688 431.324 39.297L431.324 58.5067L436.466 60.2317L436.466 64L420.003 64L420.003 60.2317L424.458 58.5067L424.458 39.9837Q424.458 36.2824 423.017 34.5406Q421.577 32.7821 418.63 32.7821Q417.189 32.7821 415.782 33.1673Q414.376 33.5358 413.17 34.1554Q411.981 34.7751 411.043 35.4952Q410.122 36.2154 409.502 36.9021L408.346 38.2754L408.346 58.5067L412.801 60.2317L412.801 64L395.652 64L395.652 60.2317L401.48 58.5067L401.48 33.1338L395.652 31.7605L395.652 27.9922L406.973 27.6405Z" fill="#674677" fill-opacity="1.000000" transform="matrix(1 0 0 1 6.73688 248.981)"/>
	<path d="M166.956 120.738C185.765 114.702 203.199 91.457 189.303 64.6188C174.03 35.1135 158.73 40.8967 146.63 44.7708C144.777 45.3604 175.996 32.1378 132.958 50.1329C133.575 47.8589 136.664 48.5888 132.958 50.1329C134.109 47.6343 128.55 51.1154 129.056 48.3081C132.256 29.92 117.629 3.83968 98.3143 0.583152C72.4018 -3.76824 58.7297 17.0623 55.5011 35.4504C54.4343 41.6547 58.6735 49.5433 60.9195 55.0177C59.993 55.6353 59.1227 56.281 58.2243 56.9547C57.3821 56.281 56.5118 55.6353 55.5854 55.0457C39.4146 44.4901 17.3202 48.4204 6.20288 63.8047C-4.85835 79.1889 -0.731446 100.188 15.4393 110.744C22.8509 115.6 20.7734 118.492 29.0553 117.509C29.3922 118.436 31.2731 123.124 31.6662 124.022C22.7386 127.756 22.4298 128.57 19.1451 138.059C13.0249 155.773 25.3495 176.267 43.9907 182.078C62.632 187.889 82.705 178.26 88.8252 160.546C89.7797 157.767 88.6287 163.325 88.8252 160.546C89.6113 160.574 91.7168 172.73 90.9308 172.73C88.0672 172.73 95.7034 187.047 98.595 187.047C111.285 197.154 113.474 205.885 129.898 203.526C150.869 200.523 162.464 187.833 167.208 169.754C171.391 153.836 160.442 129.076 145.423 122.338C145.76 121.664 147.584 122.478 147.865 121.804C153.733 122.899 160.892 122.675 166.956 120.738L166.956 120.738Z" fill="#814C94" fill-opacity="1.000000" stroke-opacity="0" transform="matrix(1 0 0 1 126.276 19.2867)"/>
	<path d="M166.956 120.738C185.765 114.702 203.199 91.457 189.303 64.6188C174.03 35.1135 158.73 40.8967 146.63 44.7708C144.777 45.3604 175.996 32.1378 132.958 50.1329C133.575 47.8589 136.664 48.5888 132.958 50.1329C134.109 47.6343 128.55 51.1154 129.056 48.3081C132.256 29.92 117.629 3.83968 98.3143 0.583152C72.4018 -3.76824 58.7297 17.0623 55.5011 35.4504C54.4343 41.6547 58.6735 49.5433 60.9195 55.0177C59.993 55.6353 59.1227 56.281 58.2243 56.9547C57.3821 56.281 56.5118 55.6353 55.5854 55.0457C39.4146 44.4901 17.3202 48.4204 6.20288 63.8047C-4.85835 79.1889 -0.731446 100.188 15.4393 110.744C22.8509 115.6 20.7734 118.492 29.0553 117.509C29.3922 118.436 31.2731 123.124 31.6662 124.022C22.7386 127.756 22.4298 128.57 19.1451 138.059C13.0249 155.773 25.3495 176.267 43.9907 182.078C62.632 187.889 82.705 178.26 88.8252 160.546C89.7797 157.767 88.6287 163.325 88.8252 160.546C89.6113 160.574 91.7168 172.73 90.9308 172.73C88.0672 172.73 95.7034 187.047 98.595 187.047C111.285 197.154 113.474 205.885 129.898 203.526C150.869 200.523 162.464 187.833 167.208 169.754C171.391 153.836 160.442 129.076 145.423 122.338C145.76 121.664 147.584 122.478 147.865 121.804C153.733 122.899 160.892 122.675 166.956 120.738L166.956 120.738Z" stroke="#000000" stroke-opacity="0.000000" stroke-width="1" stroke-dasharray="0 0" fill-opacity="0" transform="matrix(1 0 0 1 126.276 19.2867)"/>
	<path d="M149.213 217.592C145.732 217.592 142.223 217.171 138.769 216.301C122.009 212.118 109.685 198.418 106.933 181.827C106.653 183.006 106.344 184.185 105.951 185.336C98.5672 207.795 74.3111 220.035 51.8518 212.651C40.9871 209.086 32.1437 201.478 26.9781 191.259C21.8124 181.041 20.9421 169.446 24.5356 158.554C28.073 147.83 35.7653 138.902 45.8439 133.793C36.1583 134.495 26.585 131.912 18.5839 126.438C-0.871544 113.075 -5.86875 86.3487 7.49456 66.8657C20.8579 47.3827 47.5564 42.4137 67.0399 55.7767C67.6575 56.1978 68.2471 56.6189 68.8367 57.0961C68.977 56.9838 69.1455 56.8715 69.2858 56.7592C66.9557 50.0216 66.3381 42.8067 67.4891 35.8164C71.3633 12.5154 93.4858 -3.28995 116.787 0.584192C128.073 2.46512 137.955 8.61321 144.609 17.9055C151.262 27.1979 153.901 38.5396 152.02 49.8532C151.543 52.6886 150.757 55.5521 149.634 58.3875C149.915 58.6121 150.168 58.8367 150.392 59.0613L150.42 59.0051L150.813 59.3139C153.986 57.1804 157.523 55.4398 161.397 54.1484C172.346 50.4427 184.109 51.2288 194.497 56.3943C204.856 61.5317 212.605 70.403 216.31 81.3797C220.016 92.3564 219.202 104.091 214.064 114.478C208.927 124.837 200.055 132.586 189.078 136.291C183.492 138.172 177.568 138.902 171.7 138.425C187.31 148.11 195.199 167.032 190.679 185.195C187.899 196.285 180.993 205.661 171.167 211.556C164.457 215.487 156.877 217.564 149.213 217.592L149.213 217.592L149.213 217.592ZM103.733 172.31L106.877 172.478C107.411 172.506 107.944 172.562 108.477 172.562L110.667 172.562L110.723 174.752C110.723 192.438 122.683 207.795 139.836 212.09C149.803 214.588 160.162 213.044 168.977 207.739C177.793 202.433 184.025 194.039 186.496 184.073C190.931 166.302 182.144 147.774 165.608 139.969L163.615 139.043L164.991 136.207C165.215 135.73 165.468 135.253 165.665 134.775L166.338 133.147L168.079 133.484C174.62 134.719 181.442 134.27 187.731 132.137C197.585 128.824 205.586 121.834 210.218 112.513C214.85 103.193 215.552 92.6091 212.24 82.7553C208.927 72.9015 201.936 64.9006 192.616 60.2684C183.295 55.6363 172.711 54.9345 162.857 58.2471C158.842 59.5947 155.221 61.4475 152.105 63.7495L150.785 64.7321L148.848 63.2442C148.483 62.9635 148.09 62.6547 147.753 62.3459L147.725 62.374C147.641 62.3178 147.248 62.009 145.704 60.8018L144.356 59.7631L145.03 58.2191C146.321 55.2152 147.248 52.1833 147.753 49.1794C149.438 39.0449 147.079 28.8542 141.1 20.4883C135.12 12.1224 126.248 6.59192 116.085 4.90751C95.1422 1.37025 75.2937 15.5754 71.7844 36.5183C70.6615 43.284 71.4195 50.3023 73.9181 56.7592L74.5357 58.3594L73.132 59.342C72.1213 60.0438 71.1387 60.8018 70.1561 61.5879L68.7805 62.6828L67.4329 61.5598C66.5346 60.8018 65.58 60.0719 64.5974 59.3982C56.119 53.5869 45.872 51.4253 35.7933 53.3062C25.6866 55.1871 16.9275 60.8861 11.1161 69.3643C-0.927701 86.826 3.56417 110.829 21.0544 122.844C28.7467 128.122 38.1235 130.396 47.4722 129.273L49.2128 129.048L49.7743 130.705C50.1673 131.856 50.5323 132.895 50.9534 133.905L51.7675 135.87L49.8023 136.713C39.7518 141.12 32.0595 149.57 28.6344 159.901C25.434 169.671 26.22 180.086 30.8523 189.266C35.4845 198.446 43.4014 205.268 53.1713 208.468C73.3285 215.094 95.1141 204.089 101.768 183.932C102.75 180.928 103.34 177.812 103.564 174.415L103.733 172.31L103.733 172.31L103.733 172.31Z" fill="#5D416B" fill-opacity="1.000000" stroke-opacity="0" transform="matrix(1 0 0 1 105.417 6.73688)"/>
	<path d="M149.213 217.592C145.732 217.592 142.223 217.171 138.769 216.301C122.009 212.118 109.685 198.418 106.933 181.827C106.653 183.006 106.344 184.185 105.951 185.336C98.5672 207.795 74.3111 220.035 51.8518 212.651C40.9871 209.086 32.1437 201.478 26.9781 191.259C21.8124 181.041 20.9421 169.446 24.5356 158.554C28.073 147.83 35.7653 138.902 45.8439 133.793C36.1583 134.495 26.585 131.912 18.5839 126.438C-0.871544 113.075 -5.86875 86.3487 7.49456 66.8657C20.8579 47.3827 47.5564 42.4137 67.0399 55.7767C67.6575 56.1978 68.2471 56.6189 68.8367 57.0961C68.977 56.9838 69.1455 56.8715 69.2858 56.7592C66.9557 50.0216 66.3381 42.8067 67.4891 35.8164C71.3633 12.5154 93.4858 -3.28995 116.787 0.584192C128.073 2.46512 137.955 8.61321 144.609 17.9055C151.262 27.1979 153.901 38.5396 152.02 49.8532C151.543 52.6886 150.757 55.5521 149.634 58.3875C149.915 58.6121 150.168 58.8367 150.392 59.0613L150.42 59.0051L150.813 59.3139C153.986 57.1804 157.523 55.4398 161.397 54.1484C172.346 50.4427 184.109 51.2288 194.497 56.3943C204.856 61.5317 212.605 70.403 216.31 81.3797C220.016 92.3564 219.202 104.091 214.064 114.478C208.927 124.837 200.055 132.586 189.078 136.291C183.492 138.172 177.568 138.902 171.7 138.425C187.31 148.11 195.199 167.032 190.679 185.195C187.899 196.285 180.993 205.661 171.167 211.556C164.457 215.487 156.877 217.564 149.213 217.592L149.213 217.592L149.213 217.592ZM103.733 172.31L106.877 172.478C107.411 172.506 107.944 172.562 108.477 172.562L110.667 172.562L110.723 174.752C110.723 192.438 122.683 207.795 139.836 212.09C149.803 214.588 160.162 213.044 168.977 207.739C177.793 202.433 184.025 194.039 186.496 184.073C190.931 166.302 182.144 147.774 165.608 139.969L163.615 139.043L164.991 136.207C165.215 135.73 165.468 135.253 165.665 134.775L166.338 133.147L168.079 133.484C174.62 134.719 181.442 134.27 187.731 132.137C197.585 128.824 205.586 121.834 210.218 112.513C214.85 103.193 215.552 92.6091 212.24 82.7553C208.927 72.9015 201.936 64.9006 192.616 60.2684C183.295 55.6363 172.711 54.9345 162.857 58.2471C158.842 59.5947 155.221 61.4475 152.105 63.7495L150.785 64.7321L148.848 63.2442C148.483 62.9635 148.09 62.6547 147.753 62.3459L147.725 62.374C147.641 62.3178 147.248 62.009 145.704 60.8018L144.356 59.7631L145.03 58.2191C146.321 55.2152 147.248 52.1833 147.753 49.1794C149.438 39.0449 147.079 28.8542 141.1 20.4883C135.12 12.1224 126.248 6.59192 116.085 4.90751C95.1422 1.37025 75.2937 15.5754 71.7844 36.5183C70.6615 43.284 71.4195 50.3023 73.9181 56.7592L74.5357 58.3594L73.132 59.342C72.1213 60.0438 71.1387 60.8018 70.1561 61.5879L68.7805 62.6828L67.4329 61.5598C66.5346 60.8018 65.58 60.0719 64.5974 59.3982C56.119 53.5869 45.872 51.4253 35.7933 53.3062C25.6866 55.1871 16.9275 60.8861 11.1161 69.3643C-0.927701 86.826 3.56417 110.829 21.0544 122.844C28.7467 128.122 38.1235 130.396 47.4722 129.273L49.2128 129.048L49.7743 130.705C50.1673 131.856 50.5323 132.895 50.9534 133.905L51.7675 135.87L49.8023 136.713C39.7518 141.12 32.0595 149.57 28.6344 159.901C25.434 169.671 26.22 180.086 30.8523 189.266C35.4845 198.446 43.4014 205.268 53.1713 208.468C73.3285 215.094 95.1141 204.089 101.768 183.932C102.75 180.928 103.34 177.812 103.564 174.415L103.733 172.31L103.733 172.31L103.733 172.31Z" stroke="#000000" stroke-opacity="0.000000" stroke-width="1" stroke-dasharray="0 0" fill-opacity="0" transform="matrix(1 0 0 1 105.417 6.73688)"/>
	<path d="M51.9973 75.9424C50.7621 75.9424 49.5268 75.802 48.2915 75.4932C42.8171 74.1176 38.6621 69.9066 37.3145 64.6288C36.0512 68.4468 33.3561 71.5349 29.7626 73.3596C26.141 75.1844 22.0422 75.4932 18.196 74.2299C14.3498 72.9666 11.2055 70.2716 9.38072 66.6782C7.5559 63.0567 7.24708 58.9579 8.51042 55.1119C9.60531 51.7431 11.8793 48.8796 14.8552 47.0267C11.9074 46.9706 9.01575 46.0722 6.5733 44.3878C-0.304875 39.6715 -2.07355 30.2107 2.64291 23.3046C7.35938 16.4266 16.8204 14.6299 23.7266 19.3743C23.7547 19.3743 23.7547 19.4024 23.7828 19.4024C23.1371 17.2127 22.9967 14.9106 23.3617 12.6928C24.0354 8.7064 26.1971 5.19721 29.5099 2.83904C32.7946 0.480864 36.8092 -0.445561 40.7957 0.200133C44.7823 0.873899 48.2915 3.03555 50.6498 6.34823C53.008 9.63283 53.9344 13.6473 53.2887 17.6618C53.1484 18.5883 52.8957 19.5147 52.5307 20.4411L52.5588 20.4692C53.6256 19.7674 54.8047 19.2059 56.0962 18.7567C59.9985 17.4373 64.1254 17.718 67.8031 19.5428C71.4808 21.3675 74.204 24.5118 75.5235 28.3859C76.843 32.2601 76.5341 36.4149 74.7374 40.0926C72.9126 43.7702 69.7683 46.4933 65.894 47.8128C64.3219 48.3462 62.6655 48.6269 61.0091 48.6269L60.953 48.6269C65.8098 52.2203 68.1681 58.4807 66.6801 64.5165C65.6975 68.4468 63.2551 71.7595 59.7739 73.8369C57.3876 75.2125 54.7205 75.9424 51.9973 75.9424L51.9973 75.9424ZM35.9389 59.6036L37.4268 59.6598C37.5953 59.6598 37.7356 59.6878 37.9041 59.6878L38.999 59.6878L39.0271 60.7827C39.0271 66.7624 43.0698 71.9279 48.853 73.3877C52.2219 74.2299 55.7031 73.6965 58.679 71.9279C61.6549 70.1312 63.7604 67.2958 64.6027 63.9269C66.0906 57.9192 63.1428 51.6869 57.556 49.048L56.5454 48.5707L57.0507 47.5882C57.2472 47.2232 57.3314 47.0267 57.4157 46.8302L57.7525 46.016L58.6228 46.1845C60.8407 46.6056 63.1428 46.4371 65.2484 45.7353C68.5892 44.6124 71.2843 42.2542 72.8284 39.11C74.4005 35.9657 74.6251 32.4004 73.5022 29.0597C72.3792 25.7189 70.021 23.0239 66.8767 21.4798C63.7323 19.9077 60.1669 19.6831 56.8261 20.806C55.4505 21.2833 54.2433 21.9009 53.2045 22.6589L52.5308 23.1362L49.9199 21.0868L50.2567 20.3007C50.7059 19.2901 51.0148 18.2514 51.1832 17.2407C51.7447 13.8157 50.9586 10.3627 48.9373 7.55536C46.9159 4.74802 43.912 2.86709 40.4869 2.30562C33.4403 1.12654 26.7306 5.92711 25.5515 12.9736C25.1865 15.2475 25.4111 17.6057 26.2814 19.7954L26.5902 20.5815L25.8884 21.0587C25.5515 21.3114 25.1865 21.564 24.8777 21.8167L24.1758 22.3501L23.5021 21.7886C23.1932 21.536 22.8564 21.2833 22.5475 21.0587C16.6239 17.0161 8.53852 18.5321 4.49584 24.4275C0.453159 30.323 1.96916 38.4362 7.86474 42.4788C10.4756 44.2474 13.648 45.0335 16.7923 44.6404L17.6626 44.5282L17.9434 45.3704C18.0837 45.7353 18.196 46.1003 18.3364 46.4652L18.7295 47.4478L17.7469 47.8689C14.3499 49.3287 11.7671 52.1922 10.616 55.7014C9.52112 58.986 9.80186 62.5233 11.3459 65.6114C12.9181 68.6994 15.5851 71.0015 18.8979 72.0963C22.1826 73.1912 25.7199 72.9105 28.8081 71.3383C31.8962 69.7662 34.1983 67.0992 35.2932 63.8146C35.6301 62.8321 35.8266 61.7372 35.9109 60.6143L35.9389 59.6036L35.9389 59.6036L35.9389 59.6036Z" fill="#5D416B" fill-opacity="1.000000" stroke-opacity="0" transform="matrix(1 0 0 1 176.523 77.8942)"/>
	<path d="M51.9973 75.9424C50.7621 75.9424 49.5268 75.802 48.2915 75.4932C42.8171 74.1176 38.6621 69.9066 37.3145 64.6288C36.0512 68.4468 33.3561 71.5349 29.7626 73.3596C26.141 75.1844 22.0422 75.4932 18.196 74.2299C14.3498 72.9666 11.2055 70.2716 9.38072 66.6782C7.5559 63.0567 7.24708 58.9579 8.51042 55.1119C9.60531 51.7431 11.8793 48.8796 14.8552 47.0267C11.9074 46.9706 9.01575 46.0722 6.5733 44.3878C-0.304875 39.6715 -2.07355 30.2107 2.64291 23.3046C7.35938 16.4266 16.8204 14.6299 23.7266 19.3743C23.7547 19.3743 23.7547 19.4024 23.7828 19.4024C23.1371 17.2127 22.9967 14.9106 23.3617 12.6928C24.0354 8.7064 26.1971 5.19721 29.5099 2.83904C32.7946 0.480864 36.8092 -0.445561 40.7957 0.200133C44.7823 0.873899 48.2915 3.03555 50.6498 6.34823C53.008 9.63283 53.9344 13.6473 53.2887 17.6618C53.1484 18.5883 52.8957 19.5147 52.5307 20.4411L52.5588 20.4692C53.6256 19.7674 54.8047 19.2059 56.0962 18.7567C59.9985 17.4373 64.1254 17.718 67.8031 19.5428C71.4808 21.3675 74.204 24.5118 75.5235 28.3859C76.843 32.2601 76.5341 36.4149 74.7374 40.0926C72.9126 43.7702 69.7683 46.4933 65.894 47.8128C64.3219 48.3462 62.6655 48.6269 61.0091 48.6269L60.953 48.6269C65.8098 52.2203 68.1681 58.4807 66.6801 64.5165C65.6975 68.4468 63.2551 71.7595 59.7739 73.8369C57.3876 75.2125 54.7205 75.9424 51.9973 75.9424L51.9973 75.9424ZM35.9389 59.6036L37.4268 59.6598C37.5953 59.6598 37.7356 59.6878 37.9041 59.6878L38.999 59.6878L39.0271 60.7827C39.0271 66.7624 43.0698 71.9279 48.853 73.3877C52.2219 74.2299 55.7031 73.6965 58.679 71.9279C61.6549 70.1312 63.7604 67.2958 64.6027 63.9269C66.0906 57.9192 63.1428 51.6869 57.556 49.048L56.5454 48.5707L57.0507 47.5882C57.2472 47.2232 57.3314 47.0267 57.4157 46.8302L57.7525 46.016L58.6228 46.1845C60.8407 46.6056 63.1428 46.4371 65.2484 45.7353C68.5892 44.6124 71.2843 42.2542 72.8284 39.11C74.4005 35.9657 74.6251 32.4004 73.5022 29.0597C72.3792 25.7189 70.021 23.0239 66.8767 21.4798C63.7323 19.9077 60.1669 19.6831 56.8261 20.806C55.4505 21.2833 54.2433 21.9009 53.2045 22.6589L52.5308 23.1362L49.9199 21.0868L50.2567 20.3007C50.7059 19.2901 51.0148 18.2514 51.1832 17.2407C51.7447 13.8157 50.9586 10.3627 48.9373 7.55536C46.9159 4.74802 43.912 2.86709 40.4869 2.30562C33.4403 1.12654 26.7306 5.92711 25.5515 12.9736C25.1865 15.2475 25.4111 17.6057 26.2814 19.7954L26.5902 20.5815L25.8884 21.0587C25.5515 21.3114 25.1865 21.564 24.8777 21.8167L24.1758 22.3501L23.5021 21.7886C23.1932 21.536 22.8564 21.2833 22.5475 21.0587C16.6239 17.0161 8.53852 18.5321 4.49584 24.4275C0.453159 30.323 1.96916 38.4362 7.86474 42.4788C10.4756 44.2474 13.648 45.0335 16.7923 44.6404L17.6626 44.5282L17.9434 45.3704C18.0837 45.7353 18.196 46.1003 18.3364 46.4652L18.7295 47.4478L17.7469 47.8689C14.3499 49.3287 11.7671 52.1922 10.616 55.7014C9.52112 58.986 9.80186 62.5233 11.3459 65.6114C12.9181 68.6994 15.5851 71.0015 18.8979 72.0963C22.1826 73.1912 25.7199 72.9105 28.8081 71.3383C31.8962 69.7662 34.1983 67.0992 35.2932 63.8146C35.6301 62.8321 35.8266 61.7372 35.9109 60.6143L35.9389 59.6036L35.9389 59.6036L35.9389 59.6036Z" stroke="#000000" stroke-opacity="0.000000" stroke-width="1" stroke-dasharray="0 0" fill-opacity="0" transform="matrix(1 0 0 1 176.523 77.8942)"/>
	<path d="M58.7777 42.0084C66.0489 38.8642 69.9231 31.0598 67.621 24.2098C65.347 17.3599 57.7951 12.8401 51.0011 15.1421C49.6817 15.5913 47.4919 16.4616 46.425 17.2476C45.4986 16.5177 46.9304 19.0724 45.6951 18.0898C46.1162 17.1353 46.425 16.1247 46.5935 15.0579C47.7726 8.01145 43.0281 1.32996 36.0376 0.17894C29.0471 -1.00014 22.4497 3.77234 21.2986 10.8188C20.9056 13.205 21.2144 15.5071 22.0005 17.6126C21.6636 17.8372 21.3548 18.0898 21.0179 18.3425C20.7091 18.0898 20.4003 17.8372 20.0634 17.6126C14.224 13.57 6.25089 15.086 2.23628 20.9814C-1.75025 26.8768 -0.262321 34.9059 5.54904 38.9484C8.24416 40.8013 11.3604 41.4751 14.3643 41.1101C14.5047 41.447 14.617 41.8119 14.7574 42.1769C11.5288 43.5806 8.88986 46.3318 7.71075 49.9813C5.49289 56.747 9.14254 64.0742 15.8803 66.292C22.6181 68.5098 26.6889 64.2146 31.3492 57.7857C31.9949 56.8874 32.1914 57.0839 32.2476 56.0171L32.5283 56.0171L33.5109 60.5089C36.178 66.8535 37.9186 67.3588 42.9719 69.2397C49.6255 71.6821 57.0651 64.9726 58.7777 58.0384C60.2937 51.9465 57.2336 45.7984 51.8153 43.2156C51.9276 42.9629 52.0679 42.7103 52.1802 42.4576C54.3419 42.8787 56.6721 42.9349 58.7777 42.0084L58.7777 42.0084L58.7777 42.0084Z" fill="#FFFFFF" fill-opacity="1.000000" stroke-opacity="0" transform="matrix(1 0 0 1 182.826 83.2493)"/>
	<path d="M58.7777 42.0084C66.0489 38.8642 69.9231 31.0598 67.621 24.2098C65.347 17.3599 57.7951 12.8401 51.0011 15.1421C49.6817 15.5913 47.4919 16.4616 46.425 17.2476C45.4986 16.5177 46.9304 19.0724 45.6951 18.0898C46.1162 17.1353 46.425 16.1247 46.5935 15.0579C47.7726 8.01145 43.0281 1.32996 36.0376 0.17894C29.0471 -1.00014 22.4497 3.77234 21.2986 10.8188C20.9056 13.205 21.2144 15.5071 22.0005 17.6126C21.6636 17.8372 21.3548 18.0898 21.0179 18.3425C20.7091 18.0898 20.4003 17.8372 20.0634 17.6126C14.224 13.57 6.25089 15.086 2.23628 20.9814C-1.75025 26.8768 -0.262321 34.9059 5.54904 38.9484C8.24416 40.8013 11.3604 41.4751 14.3643 41.1101C14.5047 41.447 14.617 41.8119 14.7574 42.1769C11.5288 43.5806 8.88986 46.3318 7.71075 49.9813C5.49289 56.747 9.14254 64.0742 15.8803 66.292C22.6181 68.5098 26.6889 64.2146 31.3492 57.7857C31.9949 56.8874 32.1914 57.0839 32.2476 56.0171L32.5283 56.0171L33.5109 60.5089C36.178 66.8535 37.9186 67.3588 42.9719 69.2397C49.6255 71.6821 57.0651 64.9726 58.7777 58.0384C60.2937 51.9465 57.2336 45.7984 51.8153 43.2156C51.9276 42.9629 52.0679 42.7103 52.1802 42.4576C54.3419 42.8787 56.6721 42.9349 58.7777 42.0084L58.7777 42.0084L58.7777 42.0084Z" stroke="#000000" stroke-opacity="0.000000" stroke-width="1" stroke-dasharray="0 0" fill-opacity="0" transform="matrix(1 0 0 1 182.826 83.2493)"/>
	<path d="M68.501 0C68.6975 2.27395 68.8379 4.54791 68.866 6.878C69.259 30.179 61.5105 51.7114 48.2595 68.8081C67.9395 67.7694 83.4365 50.6727 83.0715 29.9544C82.903 17.6863 77.204 6.87802 68.501 6.48476e-06L68.501 0L68.501 0ZM1.29698e-05 144.045C6.59744 147.33 14.1775 148.761 22.0382 147.751C43.0377 145 57.8609 125.769 55.1377 104.742C54.5481 100.307 53.2006 96.1517 51.2915 92.3618C41.4936 115.214 23.2735 133.911 0 144.045L1.29698e-05 144.045L1.29698e-05 144.045Z" fill="#814C94" fill-opacity="1.000000" stroke-opacity="0" transform="matrix(1 0 0 1 237.561 71.7778)"/>
	<path d="M68.501 0C68.6975 2.27395 68.8379 4.54791 68.866 6.878C69.259 30.179 61.5105 51.7114 48.2595 68.8081C67.9395 67.7694 83.4365 50.6727 83.0715 29.9544C82.903 17.6863 77.204 6.87802 68.501 6.48476e-06L68.501 0L68.501 0ZM1.29698e-05 144.045C6.59744 147.33 14.1775 148.761 22.0382 147.751C43.0377 145 57.8609 125.769 55.1377 104.742C54.5481 100.307 53.2006 96.1517 51.2915 92.3618C41.4936 115.214 23.2735 133.911 0 144.045L1.29698e-05 144.045L1.29698e-05 144.045Z" stroke="#000000" stroke-opacity="0.000000" stroke-width="1" stroke-dasharray="0 0" fill-opacity="0" transform="matrix(1 0 0 1 237.561 71.7778)"/>
</svg>
